M48
; DRILL file {KiCad 7.0.5+dfsg-2} date Tue 29 Aug 2023 10:22:56 AM EDT
; FORMAT={-:-/ absolute / metric / decimal}
; #@! TF.CreationDate,2023-08-29T10:22:56-04:00
; #@! TF.GenerationSoftware,Kicad,Pcbnew,7.0.5+dfsg-2
; #@! TF.FileFunction,Plated,1,2,PTH
FMAT,2
METRIC
; #@! TA.AperFunction,Plated,PTH,ViaDrill
T1C0.381
; #@! TA.AperFunction,Plated,PTH,ComponentDrill
T2C0.600
; #@! TA.AperFunction,Plated,PTH,ComponentDrill
T3C1.100
%
G90
G05
T1
X84.351Y-59.921
X84.582Y-65.024
X84.963Y-71.628
X85.09Y-51.308
X85.725Y-59.055
X85.852Y-62.738
X86.106Y-82.169
X86.741Y-59.69
X88.138Y-73.66
X89.154Y-59.309
X89.281Y-84.074
X89.353Y-78.994
X89.789Y-73.66
X90.424Y-62.738
X90.678Y-58.039
X90.723Y-78.994
X90.723Y-83.693
X90.902Y-56.037
X92.042Y-55.024
X98.425Y-65.659
X98.552Y-63.246
X99.568Y-63.246
X99.568Y-65.659
X100.711Y-63.246
X100.711Y-65.659
X101.727Y-63.246
X101.727Y-65.659
X104.648Y-64.085
X108.077Y-64.262
X114.236Y-70.04
X116.586Y-65.659
X116.691Y-72.39
X117.221Y-76.835
X117.326Y-71.705
X118.745Y-83.185
X122.047Y-66.802
X123.571Y-64.897
X125.095Y-68.834
X128.016Y-71.374
X131.953Y-78.994
X132.207Y-71.869
T2
X121.959Y-53.848
X125.559Y-53.848
X129.159Y-53.848
X132.759Y-53.848
T3
X82.272Y-87.158
X82.272Y-91.658
X88.772Y-87.158
X88.772Y-91.658
X124.207Y-87.158
X124.207Y-91.658
X130.707Y-87.158
X130.707Y-91.658
X136.525Y-58.42
X136.525Y-75.805
X136.525Y-80.405
T0
M30
