%TF.GenerationSoftware,KiCad,Pcbnew,7.0.5+dfsg-2*%
%TF.CreationDate,2023-08-29T10:22:54-04:00*%
%TF.ProjectId,proto1_0,70726f74-6f31-45f3-902e-6b696361645f,rev?*%
%TF.SameCoordinates,Original*%
%TF.FileFunction,Soldermask,Top*%
%TF.FilePolarity,Negative*%
%FSLAX46Y46*%
G04 Gerber Fmt 4.6, Leading zero omitted, Abs format (unit mm)*
G04 Created by KiCad (PCBNEW 7.0.5+dfsg-2) date 2023-08-29 10:22:54*
%MOMM*%
%LPD*%
G01*
G04 APERTURE LIST*
G04 Aperture macros list*
%AMRoundRect*
0 Rectangle with rounded corners*
0 $1 Rounding radius*
0 $2 $3 $4 $5 $6 $7 $8 $9 X,Y pos of 4 corners*
0 Add a 4 corners polygon primitive as box body*
4,1,4,$2,$3,$4,$5,$6,$7,$8,$9,$2,$3,0*
0 Add four circle primitives for the rounded corners*
1,1,$1+$1,$2,$3*
1,1,$1+$1,$4,$5*
1,1,$1+$1,$6,$7*
1,1,$1+$1,$8,$9*
0 Add four rect primitives between the rounded corners*
20,1,$1+$1,$2,$3,$4,$5,0*
20,1,$1+$1,$4,$5,$6,$7,0*
20,1,$1+$1,$6,$7,$8,$9,0*
20,1,$1+$1,$8,$9,$2,$3,0*%
G04 Aperture macros list end*
%ADD10C,1.000000*%
%ADD11R,1.000000X1.800000*%
%ADD12C,0.599440*%
%ADD13R,0.698500X1.498600*%
%ADD14RoundRect,0.250000X0.250000X0.475000X-0.250000X0.475000X-0.250000X-0.475000X0.250000X-0.475000X0*%
%ADD15C,1.500000*%
%ADD16RoundRect,0.237500X-0.287500X-0.237500X0.287500X-0.237500X0.287500X0.237500X-0.287500X0.237500X0*%
%ADD17R,0.740000X2.400000*%
%ADD18RoundRect,0.150000X-0.150000X0.587500X-0.150000X-0.587500X0.150000X-0.587500X0.150000X0.587500X0*%
%ADD19RoundRect,0.200000X0.200000X0.275000X-0.200000X0.275000X-0.200000X-0.275000X0.200000X-0.275000X0*%
%ADD20RoundRect,0.225000X-0.225000X-0.250000X0.225000X-0.250000X0.225000X0.250000X-0.225000X0.250000X0*%
%ADD21RoundRect,0.200000X0.275000X-0.200000X0.275000X0.200000X-0.275000X0.200000X-0.275000X-0.200000X0*%
%ADD22RoundRect,0.200000X-0.200000X-0.275000X0.200000X-0.275000X0.200000X0.275000X-0.200000X0.275000X0*%
%ADD23RoundRect,0.250001X-0.799999X0.799999X-0.799999X-0.799999X0.799999X-0.799999X0.799999X0.799999X0*%
%ADD24C,2.100000*%
%ADD25RoundRect,0.250000X0.262500X0.450000X-0.262500X0.450000X-0.262500X-0.450000X0.262500X-0.450000X0*%
%ADD26RoundRect,0.100000X0.637500X0.100000X-0.637500X0.100000X-0.637500X-0.100000X0.637500X-0.100000X0*%
%ADD27C,2.200000*%
%ADD28RoundRect,0.225000X0.250000X-0.225000X0.250000X0.225000X-0.250000X0.225000X-0.250000X-0.225000X0*%
%ADD29RoundRect,0.225000X0.225000X0.250000X-0.225000X0.250000X-0.225000X-0.250000X0.225000X-0.250000X0*%
%ADD30RoundRect,0.250001X-0.799999X-0.799999X0.799999X-0.799999X0.799999X0.799999X-0.799999X0.799999X0*%
%ADD31RoundRect,0.225000X-0.250000X0.225000X-0.250000X-0.225000X0.250000X-0.225000X0.250000X0.225000X0*%
%ADD32RoundRect,0.200000X-0.275000X0.200000X-0.275000X-0.200000X0.275000X-0.200000X0.275000X0.200000X0*%
%ADD33RoundRect,0.250000X-0.475000X0.250000X-0.475000X-0.250000X0.475000X-0.250000X0.475000X0.250000X0*%
%ADD34RoundRect,0.250000X-0.250000X-0.475000X0.250000X-0.475000X0.250000X0.475000X-0.250000X0.475000X0*%
%ADD35RoundRect,0.250000X-0.550000X-0.550000X0.550000X-0.550000X0.550000X0.550000X-0.550000X0.550000X0*%
%ADD36C,1.600000*%
%ADD37C,2.000000*%
G04 APERTURE END LIST*
D10*
%TO.C,FID3*%
X78740000Y-81915000D03*
%TD*%
%TO.C,FID2*%
X138430000Y-92075000D03*
%TD*%
%TO.C,FID1*%
X93345000Y-52705000D03*
%TD*%
D11*
%TO.C,Y1*%
X84876000Y-78105000D03*
X87376000Y-78105000D03*
%TD*%
D12*
%TO.C,U1*%
X90238580Y-66062860D03*
X89039700Y-66062860D03*
X87838280Y-66062860D03*
X86639400Y-66062860D03*
X85437980Y-66062860D03*
X84239100Y-66062860D03*
X90238580Y-67561460D03*
X89039700Y-67561460D03*
X87838280Y-67561460D03*
X86639400Y-67561460D03*
X85437980Y-67561460D03*
X84239100Y-67561460D03*
X90238580Y-69062600D03*
X89039700Y-69062600D03*
X87838280Y-69062600D03*
X86639400Y-69062600D03*
X85437980Y-69062600D03*
X84239100Y-69062600D03*
X90238580Y-70561200D03*
X89039700Y-70561200D03*
X87838280Y-70561200D03*
X86639400Y-70561200D03*
X85437980Y-70561200D03*
X84239100Y-70561200D03*
D13*
X83439000Y-61313060D03*
X84538820Y-61313060D03*
X85638640Y-61313060D03*
X86738460Y-61313060D03*
X87838280Y-61313060D03*
X88938100Y-61313060D03*
X90037920Y-61313060D03*
X91137740Y-61313060D03*
X91137740Y-75311000D03*
X90037920Y-75311000D03*
X88938100Y-75311000D03*
X87838280Y-75311000D03*
X86738460Y-75311000D03*
X85638640Y-75311000D03*
X84538820Y-75311000D03*
X83439000Y-75311000D03*
%TD*%
D14*
%TO.C,C10*%
X92136000Y-59182000D03*
X90236000Y-59182000D03*
%TD*%
D15*
%TO.C,TP7*%
X110871000Y-57277000D03*
%TD*%
D16*
%TO.C,D1*%
X99455000Y-76835000D03*
X101205000Y-76835000D03*
%TD*%
D17*
%TO.C,J2*%
X87630000Y-53295000D03*
X87630000Y-57195000D03*
X86360000Y-53295000D03*
X86360000Y-57195000D03*
X85090000Y-53295000D03*
X85090000Y-57195000D03*
X83820000Y-53295000D03*
X83820000Y-57195000D03*
X82550000Y-53295000D03*
X82550000Y-57195000D03*
%TD*%
D18*
%TO.C,Q1*%
X120965000Y-58752500D03*
X119065000Y-58752500D03*
X120015000Y-60627500D03*
%TD*%
D19*
%TO.C,R6*%
X119000000Y-72390000D03*
X120650000Y-72390000D03*
%TD*%
D20*
%TO.C,C3*%
X128003000Y-65786000D03*
X129553000Y-65786000D03*
%TD*%
D15*
%TO.C,TP2*%
X92075000Y-78740000D03*
%TD*%
D21*
%TO.C,R3*%
X116967000Y-68262000D03*
X116967000Y-66612000D03*
%TD*%
D22*
%TO.C,R7*%
X113348000Y-58801000D03*
X114998000Y-58801000D03*
%TD*%
D21*
%TO.C,R9*%
X116840000Y-60515000D03*
X116840000Y-58865000D03*
%TD*%
D23*
%TO.C,BT1*%
X136525000Y-75805000D03*
D24*
X136525000Y-80405000D03*
%TD*%
D25*
%TO.C,R8*%
X120292500Y-78740000D03*
X118467500Y-78740000D03*
%TD*%
D26*
%TO.C,U2*%
X129367500Y-71998000D03*
X129367500Y-71348000D03*
X129367500Y-70698000D03*
X129367500Y-70048000D03*
X129367500Y-69398000D03*
X129367500Y-68748000D03*
X129367500Y-68098000D03*
X129367500Y-67448000D03*
X123642500Y-67448000D03*
X123642500Y-68098000D03*
X123642500Y-68748000D03*
X123642500Y-69398000D03*
X123642500Y-70048000D03*
X123642500Y-70698000D03*
X123642500Y-71348000D03*
X123642500Y-71998000D03*
%TD*%
D15*
%TO.C,TP6*%
X111760000Y-69469000D03*
%TD*%
D27*
%TO.C,H6*%
X137972800Y-52673250D03*
%TD*%
D28*
%TO.C,C5*%
X131191000Y-73419000D03*
X131191000Y-71869000D03*
%TD*%
D27*
%TO.C,H4*%
X92621100Y-86614000D03*
%TD*%
%TO.C,H2*%
X120802400Y-86614000D03*
%TD*%
D28*
%TO.C,C4*%
X121793000Y-69609000D03*
X121793000Y-68059000D03*
%TD*%
D15*
%TO.C,TP8*%
X116840000Y-83185000D03*
%TD*%
D29*
%TO.C,C7*%
X124600000Y-65786000D03*
X123050000Y-65786000D03*
%TD*%
D19*
%TO.C,R4*%
X117285000Y-70231000D03*
X118935000Y-70231000D03*
%TD*%
D27*
%TO.C,H5*%
X137972800Y-86614000D03*
%TD*%
D30*
%TO.C,J3*%
X136525000Y-58420000D03*
%TD*%
D31*
%TO.C,C1*%
X84836000Y-80645000D03*
X84836000Y-82195000D03*
%TD*%
%TO.C,C2*%
X87503000Y-80632000D03*
X87503000Y-82182000D03*
%TD*%
D15*
%TO.C,TP4*%
X100330000Y-73660000D03*
%TD*%
D32*
%TO.C,R1*%
X129794000Y-63119000D03*
X129794000Y-61469000D03*
%TD*%
D15*
%TO.C,TP3*%
X95885000Y-76200000D03*
%TD*%
D28*
%TO.C,C6*%
X131191000Y-69990000D03*
X131191000Y-68440000D03*
%TD*%
D33*
%TO.C,C9*%
X133350000Y-77155000D03*
X133350000Y-79055000D03*
%TD*%
D32*
%TO.C,R2*%
X127762000Y-61469000D03*
X127762000Y-63119000D03*
%TD*%
D15*
%TO.C,TP5*%
X109855000Y-72009000D03*
%TD*%
D34*
%TO.C,C8*%
X121605000Y-56134000D03*
X123505000Y-56134000D03*
%TD*%
D27*
%TO.C,H1*%
X78422500Y-86614000D03*
%TD*%
D15*
%TO.C,TP1*%
X91440000Y-81915000D03*
%TD*%
D19*
%TO.C,R5*%
X122745000Y-74295000D03*
X121095000Y-74295000D03*
%TD*%
D27*
%TO.C,H3*%
X78740000Y-52476400D03*
%TD*%
D35*
%TO.C,J1*%
X121959000Y-53848000D03*
D36*
X125559000Y-53848000D03*
X129159000Y-53848000D03*
X132759000Y-53848000D03*
%TD*%
D37*
%TO.C,SW1*%
X88771800Y-87158000D03*
X82271800Y-87158000D03*
X88771800Y-91658000D03*
X82271800Y-91658000D03*
%TD*%
%TO.C,SW2*%
X130707200Y-87158000D03*
X124207200Y-87158000D03*
X130707200Y-91658000D03*
X124207200Y-91658000D03*
%TD*%
M02*
