%TF.GenerationSoftware,KiCad,Pcbnew,7.0.5+dfsg-2*%
%TF.CreationDate,2023-08-29T10:22:54-04:00*%
%TF.ProjectId,proto1_0,70726f74-6f31-45f3-902e-6b696361645f,rev?*%
%TF.SameCoordinates,Original*%
%TF.FileFunction,Legend,Top*%
%TF.FilePolarity,Positive*%
%FSLAX46Y46*%
G04 Gerber Fmt 4.6, Leading zero omitted, Abs format (unit mm)*
G04 Created by KiCad (PCBNEW 7.0.5+dfsg-2) date 2023-08-29 10:22:54*
%MOMM*%
%LPD*%
G01*
G04 APERTURE LIST*
G04 Aperture macros list*
%AMRoundRect*
0 Rectangle with rounded corners*
0 $1 Rounding radius*
0 $2 $3 $4 $5 $6 $7 $8 $9 X,Y pos of 4 corners*
0 Add a 4 corners polygon primitive as box body*
4,1,4,$2,$3,$4,$5,$6,$7,$8,$9,$2,$3,0*
0 Add four circle primitives for the rounded corners*
1,1,$1+$1,$2,$3*
1,1,$1+$1,$4,$5*
1,1,$1+$1,$6,$7*
1,1,$1+$1,$8,$9*
0 Add four rect primitives between the rounded corners*
20,1,$1+$1,$2,$3,$4,$5,0*
20,1,$1+$1,$4,$5,$6,$7,0*
20,1,$1+$1,$6,$7,$8,$9,0*
20,1,$1+$1,$8,$9,$2,$3,0*%
G04 Aperture macros list end*
%ADD10C,0.152400*%
%ADD11C,0.150000*%
%ADD12C,0.120000*%
%ADD13C,0.100000*%
%ADD14C,0.127000*%
%ADD15C,1.000000*%
%ADD16R,1.000000X1.800000*%
%ADD17C,0.599440*%
%ADD18R,0.698500X1.498600*%
%ADD19RoundRect,0.250000X0.250000X0.475000X-0.250000X0.475000X-0.250000X-0.475000X0.250000X-0.475000X0*%
%ADD20C,1.500000*%
%ADD21RoundRect,0.237500X-0.287500X-0.237500X0.287500X-0.237500X0.287500X0.237500X-0.287500X0.237500X0*%
%ADD22R,0.740000X2.400000*%
%ADD23RoundRect,0.150000X-0.150000X0.587500X-0.150000X-0.587500X0.150000X-0.587500X0.150000X0.587500X0*%
%ADD24RoundRect,0.200000X0.200000X0.275000X-0.200000X0.275000X-0.200000X-0.275000X0.200000X-0.275000X0*%
%ADD25RoundRect,0.225000X-0.225000X-0.250000X0.225000X-0.250000X0.225000X0.250000X-0.225000X0.250000X0*%
%ADD26RoundRect,0.200000X0.275000X-0.200000X0.275000X0.200000X-0.275000X0.200000X-0.275000X-0.200000X0*%
%ADD27RoundRect,0.200000X-0.200000X-0.275000X0.200000X-0.275000X0.200000X0.275000X-0.200000X0.275000X0*%
%ADD28RoundRect,0.250001X-0.799999X0.799999X-0.799999X-0.799999X0.799999X-0.799999X0.799999X0.799999X0*%
%ADD29C,2.100000*%
%ADD30RoundRect,0.250000X0.262500X0.450000X-0.262500X0.450000X-0.262500X-0.450000X0.262500X-0.450000X0*%
%ADD31RoundRect,0.100000X0.637500X0.100000X-0.637500X0.100000X-0.637500X-0.100000X0.637500X-0.100000X0*%
%ADD32C,2.200000*%
%ADD33RoundRect,0.225000X0.250000X-0.225000X0.250000X0.225000X-0.250000X0.225000X-0.250000X-0.225000X0*%
%ADD34RoundRect,0.225000X0.225000X0.250000X-0.225000X0.250000X-0.225000X-0.250000X0.225000X-0.250000X0*%
%ADD35RoundRect,0.250001X-0.799999X-0.799999X0.799999X-0.799999X0.799999X0.799999X-0.799999X0.799999X0*%
%ADD36RoundRect,0.225000X-0.250000X0.225000X-0.250000X-0.225000X0.250000X-0.225000X0.250000X0.225000X0*%
%ADD37RoundRect,0.200000X-0.275000X0.200000X-0.275000X-0.200000X0.275000X-0.200000X0.275000X0.200000X0*%
%ADD38RoundRect,0.250000X-0.475000X0.250000X-0.475000X-0.250000X0.475000X-0.250000X0.475000X0.250000X0*%
%ADD39RoundRect,0.250000X-0.250000X-0.475000X0.250000X-0.475000X0.250000X0.475000X-0.250000X0.475000X0*%
%ADD40RoundRect,0.250000X-0.550000X-0.550000X0.550000X-0.550000X0.550000X0.550000X-0.550000X0.550000X0*%
%ADD41C,1.600000*%
%ADD42C,2.000000*%
G04 APERTURE END LIST*
D10*
X83557405Y-63525820D02*
X83557405Y-64070106D01*
X83557405Y-64070106D02*
X83521120Y-64178963D01*
X83521120Y-64178963D02*
X83448548Y-64251535D01*
X83448548Y-64251535D02*
X83339691Y-64287820D01*
X83339691Y-64287820D02*
X83267120Y-64287820D01*
X84283119Y-64287820D02*
X83920262Y-64287820D01*
X83920262Y-64287820D02*
X83920262Y-63525820D01*
X84972548Y-64215249D02*
X84936262Y-64251535D01*
X84936262Y-64251535D02*
X84827405Y-64287820D01*
X84827405Y-64287820D02*
X84754833Y-64287820D01*
X84754833Y-64287820D02*
X84645976Y-64251535D01*
X84645976Y-64251535D02*
X84573405Y-64178963D01*
X84573405Y-64178963D02*
X84537119Y-64106392D01*
X84537119Y-64106392D02*
X84500833Y-63961249D01*
X84500833Y-63961249D02*
X84500833Y-63852392D01*
X84500833Y-63852392D02*
X84537119Y-63707249D01*
X84537119Y-63707249D02*
X84573405Y-63634677D01*
X84573405Y-63634677D02*
X84645976Y-63562106D01*
X84645976Y-63562106D02*
X84754833Y-63525820D01*
X84754833Y-63525820D02*
X84827405Y-63525820D01*
X84827405Y-63525820D02*
X84936262Y-63562106D01*
X84936262Y-63562106D02*
X84972548Y-63598392D01*
X85516833Y-63525820D02*
X85516833Y-64070106D01*
X85516833Y-64070106D02*
X85480548Y-64178963D01*
X85480548Y-64178963D02*
X85407976Y-64251535D01*
X85407976Y-64251535D02*
X85299119Y-64287820D01*
X85299119Y-64287820D02*
X85226548Y-64287820D01*
X86242547Y-64287820D02*
X85879690Y-64287820D01*
X85879690Y-64287820D02*
X85879690Y-63525820D01*
X86931976Y-64215249D02*
X86895690Y-64251535D01*
X86895690Y-64251535D02*
X86786833Y-64287820D01*
X86786833Y-64287820D02*
X86714261Y-64287820D01*
X86714261Y-64287820D02*
X86605404Y-64251535D01*
X86605404Y-64251535D02*
X86532833Y-64178963D01*
X86532833Y-64178963D02*
X86496547Y-64106392D01*
X86496547Y-64106392D02*
X86460261Y-63961249D01*
X86460261Y-63961249D02*
X86460261Y-63852392D01*
X86460261Y-63852392D02*
X86496547Y-63707249D01*
X86496547Y-63707249D02*
X86532833Y-63634677D01*
X86532833Y-63634677D02*
X86605404Y-63562106D01*
X86605404Y-63562106D02*
X86714261Y-63525820D01*
X86714261Y-63525820D02*
X86786833Y-63525820D01*
X86786833Y-63525820D02*
X86895690Y-63562106D01*
X86895690Y-63562106D02*
X86931976Y-63598392D01*
X87476261Y-63525820D02*
X87476261Y-64070106D01*
X87476261Y-64070106D02*
X87439976Y-64178963D01*
X87439976Y-64178963D02*
X87367404Y-64251535D01*
X87367404Y-64251535D02*
X87258547Y-64287820D01*
X87258547Y-64287820D02*
X87185976Y-64287820D01*
X88201975Y-64287820D02*
X87839118Y-64287820D01*
X87839118Y-64287820D02*
X87839118Y-63525820D01*
X88891404Y-64215249D02*
X88855118Y-64251535D01*
X88855118Y-64251535D02*
X88746261Y-64287820D01*
X88746261Y-64287820D02*
X88673689Y-64287820D01*
X88673689Y-64287820D02*
X88564832Y-64251535D01*
X88564832Y-64251535D02*
X88492261Y-64178963D01*
X88492261Y-64178963D02*
X88455975Y-64106392D01*
X88455975Y-64106392D02*
X88419689Y-63961249D01*
X88419689Y-63961249D02*
X88419689Y-63852392D01*
X88419689Y-63852392D02*
X88455975Y-63707249D01*
X88455975Y-63707249D02*
X88492261Y-63634677D01*
X88492261Y-63634677D02*
X88564832Y-63562106D01*
X88564832Y-63562106D02*
X88673689Y-63525820D01*
X88673689Y-63525820D02*
X88746261Y-63525820D01*
X88746261Y-63525820D02*
X88855118Y-63562106D01*
X88855118Y-63562106D02*
X88891404Y-63598392D01*
X89435689Y-63525820D02*
X89435689Y-64070106D01*
X89435689Y-64070106D02*
X89399404Y-64178963D01*
X89399404Y-64178963D02*
X89326832Y-64251535D01*
X89326832Y-64251535D02*
X89217975Y-64287820D01*
X89217975Y-64287820D02*
X89145404Y-64287820D01*
X90161403Y-64287820D02*
X89798546Y-64287820D01*
X89798546Y-64287820D02*
X89798546Y-63525820D01*
X90850832Y-64215249D02*
X90814546Y-64251535D01*
X90814546Y-64251535D02*
X90705689Y-64287820D01*
X90705689Y-64287820D02*
X90633117Y-64287820D01*
X90633117Y-64287820D02*
X90524260Y-64251535D01*
X90524260Y-64251535D02*
X90451689Y-64178963D01*
X90451689Y-64178963D02*
X90415403Y-64106392D01*
X90415403Y-64106392D02*
X90379117Y-63961249D01*
X90379117Y-63961249D02*
X90379117Y-63852392D01*
X90379117Y-63852392D02*
X90415403Y-63707249D01*
X90415403Y-63707249D02*
X90451689Y-63634677D01*
X90451689Y-63634677D02*
X90524260Y-63562106D01*
X90524260Y-63562106D02*
X90633117Y-63525820D01*
X90633117Y-63525820D02*
X90705689Y-63525820D01*
X90705689Y-63525820D02*
X90814546Y-63562106D01*
X90814546Y-63562106D02*
X90850832Y-63598392D01*
X104439834Y-56794820D02*
X104693834Y-57556820D01*
X104693834Y-57556820D02*
X104947834Y-56794820D01*
X105201834Y-57556820D02*
X105201834Y-56794820D01*
X105201834Y-56794820D02*
X105383263Y-56794820D01*
X105383263Y-56794820D02*
X105492120Y-56831106D01*
X105492120Y-56831106D02*
X105564691Y-56903677D01*
X105564691Y-56903677D02*
X105600977Y-56976249D01*
X105600977Y-56976249D02*
X105637263Y-57121392D01*
X105637263Y-57121392D02*
X105637263Y-57230249D01*
X105637263Y-57230249D02*
X105600977Y-57375392D01*
X105600977Y-57375392D02*
X105564691Y-57447963D01*
X105564691Y-57447963D02*
X105492120Y-57520535D01*
X105492120Y-57520535D02*
X105383263Y-57556820D01*
X105383263Y-57556820D02*
X105201834Y-57556820D01*
X105963834Y-57556820D02*
X105963834Y-56794820D01*
X105963834Y-56794820D02*
X106145263Y-56794820D01*
X106145263Y-56794820D02*
X106254120Y-56831106D01*
X106254120Y-56831106D02*
X106326691Y-56903677D01*
X106326691Y-56903677D02*
X106362977Y-56976249D01*
X106362977Y-56976249D02*
X106399263Y-57121392D01*
X106399263Y-57121392D02*
X106399263Y-57230249D01*
X106399263Y-57230249D02*
X106362977Y-57375392D01*
X106362977Y-57375392D02*
X106326691Y-57447963D01*
X106326691Y-57447963D02*
X106254120Y-57520535D01*
X106254120Y-57520535D02*
X106145263Y-57556820D01*
X106145263Y-57556820D02*
X105963834Y-57556820D01*
X106689548Y-57339106D02*
X107052406Y-57339106D01*
X106616977Y-57556820D02*
X106870977Y-56794820D01*
X106870977Y-56794820D02*
X107124977Y-57556820D01*
X107197549Y-57629392D02*
X107778120Y-57629392D01*
X108104691Y-56794820D02*
X108249834Y-56794820D01*
X108249834Y-56794820D02*
X108322405Y-56831106D01*
X108322405Y-56831106D02*
X108394977Y-56903677D01*
X108394977Y-56903677D02*
X108431262Y-57048820D01*
X108431262Y-57048820D02*
X108431262Y-57302820D01*
X108431262Y-57302820D02*
X108394977Y-57447963D01*
X108394977Y-57447963D02*
X108322405Y-57520535D01*
X108322405Y-57520535D02*
X108249834Y-57556820D01*
X108249834Y-57556820D02*
X108104691Y-57556820D01*
X108104691Y-57556820D02*
X108032120Y-57520535D01*
X108032120Y-57520535D02*
X107959548Y-57447963D01*
X107959548Y-57447963D02*
X107923262Y-57302820D01*
X107923262Y-57302820D02*
X107923262Y-57048820D01*
X107923262Y-57048820D02*
X107959548Y-56903677D01*
X107959548Y-56903677D02*
X108032120Y-56831106D01*
X108032120Y-56831106D02*
X108104691Y-56794820D01*
X108757834Y-57556820D02*
X108757834Y-56794820D01*
X108757834Y-56794820D02*
X109193263Y-57556820D01*
X109193263Y-57556820D02*
X109193263Y-56794820D01*
X104443463Y-56583275D02*
X109298492Y-56583275D01*
X134865405Y-56377535D02*
X134974263Y-56413820D01*
X134974263Y-56413820D02*
X135155691Y-56413820D01*
X135155691Y-56413820D02*
X135228263Y-56377535D01*
X135228263Y-56377535D02*
X135264548Y-56341249D01*
X135264548Y-56341249D02*
X135300834Y-56268677D01*
X135300834Y-56268677D02*
X135300834Y-56196106D01*
X135300834Y-56196106D02*
X135264548Y-56123535D01*
X135264548Y-56123535D02*
X135228263Y-56087249D01*
X135228263Y-56087249D02*
X135155691Y-56050963D01*
X135155691Y-56050963D02*
X135010548Y-56014677D01*
X135010548Y-56014677D02*
X134937977Y-55978392D01*
X134937977Y-55978392D02*
X134901691Y-55942106D01*
X134901691Y-55942106D02*
X134865405Y-55869535D01*
X134865405Y-55869535D02*
X134865405Y-55796963D01*
X134865405Y-55796963D02*
X134901691Y-55724392D01*
X134901691Y-55724392D02*
X134937977Y-55688106D01*
X134937977Y-55688106D02*
X135010548Y-55651820D01*
X135010548Y-55651820D02*
X135191977Y-55651820D01*
X135191977Y-55651820D02*
X135300834Y-55688106D01*
X135627405Y-56413820D02*
X135627405Y-55651820D01*
X135627405Y-56014677D02*
X136062834Y-56014677D01*
X136062834Y-56413820D02*
X136062834Y-55651820D01*
X136425691Y-56413820D02*
X136425691Y-55651820D01*
X136788548Y-56014677D02*
X137042548Y-56014677D01*
X137151405Y-56413820D02*
X136788548Y-56413820D01*
X136788548Y-56413820D02*
X136788548Y-55651820D01*
X136788548Y-55651820D02*
X137151405Y-55651820D01*
X137840834Y-56413820D02*
X137477977Y-56413820D01*
X137477977Y-56413820D02*
X137477977Y-55651820D01*
X138094834Y-56413820D02*
X138094834Y-55651820D01*
X138094834Y-55651820D02*
X138276263Y-55651820D01*
X138276263Y-55651820D02*
X138385120Y-55688106D01*
X138385120Y-55688106D02*
X138457691Y-55760677D01*
X138457691Y-55760677D02*
X138493977Y-55833249D01*
X138493977Y-55833249D02*
X138530263Y-55978392D01*
X138530263Y-55978392D02*
X138530263Y-56087249D01*
X138530263Y-56087249D02*
X138493977Y-56232392D01*
X138493977Y-56232392D02*
X138457691Y-56304963D01*
X138457691Y-56304963D02*
X138385120Y-56377535D01*
X138385120Y-56377535D02*
X138276263Y-56413820D01*
X138276263Y-56413820D02*
X138094834Y-56413820D01*
X128642405Y-52005106D02*
X129005263Y-52005106D01*
X128569834Y-52222820D02*
X128823834Y-51460820D01*
X128823834Y-51460820D02*
X129077834Y-52222820D01*
X129331834Y-51932535D02*
X129912406Y-51932535D01*
X129622120Y-52222820D02*
X129622120Y-51642249D01*
X124995691Y-51823677D02*
X125249691Y-51823677D01*
X125358548Y-52222820D02*
X124995691Y-52222820D01*
X124995691Y-52222820D02*
X124995691Y-51460820D01*
X124995691Y-51460820D02*
X125358548Y-51460820D01*
X125685120Y-51932535D02*
X126265692Y-51932535D01*
X138602834Y-75336820D02*
X138856834Y-76098820D01*
X138856834Y-76098820D02*
X139110834Y-75336820D01*
X139364834Y-75808535D02*
X139945406Y-75808535D01*
X139655120Y-76098820D02*
X139655120Y-75518249D01*
D11*
X125558779Y-84070819D02*
X125558779Y-83070819D01*
X125558779Y-83547009D02*
X126130207Y-83547009D01*
X126130207Y-84070819D02*
X126130207Y-83070819D01*
X127034969Y-84070819D02*
X127034969Y-83547009D01*
X127034969Y-83547009D02*
X126987350Y-83451771D01*
X126987350Y-83451771D02*
X126892112Y-83404152D01*
X126892112Y-83404152D02*
X126701636Y-83404152D01*
X126701636Y-83404152D02*
X126606398Y-83451771D01*
X127034969Y-84023200D02*
X126939731Y-84070819D01*
X126939731Y-84070819D02*
X126701636Y-84070819D01*
X126701636Y-84070819D02*
X126606398Y-84023200D01*
X126606398Y-84023200D02*
X126558779Y-83927961D01*
X126558779Y-83927961D02*
X126558779Y-83832723D01*
X126558779Y-83832723D02*
X126606398Y-83737485D01*
X126606398Y-83737485D02*
X126701636Y-83689866D01*
X126701636Y-83689866D02*
X126939731Y-83689866D01*
X126939731Y-83689866D02*
X127034969Y-83642247D01*
X127511160Y-83404152D02*
X127511160Y-84070819D01*
X127511160Y-83499390D02*
X127558779Y-83451771D01*
X127558779Y-83451771D02*
X127654017Y-83404152D01*
X127654017Y-83404152D02*
X127796874Y-83404152D01*
X127796874Y-83404152D02*
X127892112Y-83451771D01*
X127892112Y-83451771D02*
X127939731Y-83547009D01*
X127939731Y-83547009D02*
X127939731Y-84070819D01*
X128844493Y-83404152D02*
X128844493Y-84213676D01*
X128844493Y-84213676D02*
X128796874Y-84308914D01*
X128796874Y-84308914D02*
X128749255Y-84356533D01*
X128749255Y-84356533D02*
X128654017Y-84404152D01*
X128654017Y-84404152D02*
X128511160Y-84404152D01*
X128511160Y-84404152D02*
X128415922Y-84356533D01*
X128844493Y-84023200D02*
X128749255Y-84070819D01*
X128749255Y-84070819D02*
X128558779Y-84070819D01*
X128558779Y-84070819D02*
X128463541Y-84023200D01*
X128463541Y-84023200D02*
X128415922Y-83975580D01*
X128415922Y-83975580D02*
X128368303Y-83880342D01*
X128368303Y-83880342D02*
X128368303Y-83594628D01*
X128368303Y-83594628D02*
X128415922Y-83499390D01*
X128415922Y-83499390D02*
X128463541Y-83451771D01*
X128463541Y-83451771D02*
X128558779Y-83404152D01*
X128558779Y-83404152D02*
X128749255Y-83404152D01*
X128749255Y-83404152D02*
X128844493Y-83451771D01*
X129320684Y-84070819D02*
X129320684Y-83404152D01*
X129320684Y-83499390D02*
X129368303Y-83451771D01*
X129368303Y-83451771D02*
X129463541Y-83404152D01*
X129463541Y-83404152D02*
X129606398Y-83404152D01*
X129606398Y-83404152D02*
X129701636Y-83451771D01*
X129701636Y-83451771D02*
X129749255Y-83547009D01*
X129749255Y-83547009D02*
X129749255Y-84070819D01*
X129749255Y-83547009D02*
X129796874Y-83451771D01*
X129796874Y-83451771D02*
X129892112Y-83404152D01*
X129892112Y-83404152D02*
X130034969Y-83404152D01*
X130034969Y-83404152D02*
X130130208Y-83451771D01*
X130130208Y-83451771D02*
X130177827Y-83547009D01*
X130177827Y-83547009D02*
X130177827Y-84070819D01*
X131082588Y-84070819D02*
X131082588Y-83547009D01*
X131082588Y-83547009D02*
X131034969Y-83451771D01*
X131034969Y-83451771D02*
X130939731Y-83404152D01*
X130939731Y-83404152D02*
X130749255Y-83404152D01*
X130749255Y-83404152D02*
X130654017Y-83451771D01*
X131082588Y-84023200D02*
X130987350Y-84070819D01*
X130987350Y-84070819D02*
X130749255Y-84070819D01*
X130749255Y-84070819D02*
X130654017Y-84023200D01*
X130654017Y-84023200D02*
X130606398Y-83927961D01*
X130606398Y-83927961D02*
X130606398Y-83832723D01*
X130606398Y-83832723D02*
X130654017Y-83737485D01*
X130654017Y-83737485D02*
X130749255Y-83689866D01*
X130749255Y-83689866D02*
X130987350Y-83689866D01*
X130987350Y-83689866D02*
X131082588Y-83642247D01*
X131558779Y-83404152D02*
X131558779Y-84070819D01*
X131558779Y-83499390D02*
X131606398Y-83451771D01*
X131606398Y-83451771D02*
X131701636Y-83404152D01*
X131701636Y-83404152D02*
X131844493Y-83404152D01*
X131844493Y-83404152D02*
X131939731Y-83451771D01*
X131939731Y-83451771D02*
X131987350Y-83547009D01*
X131987350Y-83547009D02*
X131987350Y-84070819D01*
X133225446Y-84070819D02*
X133225446Y-83070819D01*
X133225446Y-83070819D02*
X133606398Y-83070819D01*
X133606398Y-83070819D02*
X133701636Y-83118438D01*
X133701636Y-83118438D02*
X133749255Y-83166057D01*
X133749255Y-83166057D02*
X133796874Y-83261295D01*
X133796874Y-83261295D02*
X133796874Y-83404152D01*
X133796874Y-83404152D02*
X133749255Y-83499390D01*
X133749255Y-83499390D02*
X133701636Y-83547009D01*
X133701636Y-83547009D02*
X133606398Y-83594628D01*
X133606398Y-83594628D02*
X133225446Y-83594628D01*
X134749255Y-84070819D02*
X134177827Y-84070819D01*
X134463541Y-84070819D02*
X134463541Y-83070819D01*
X134463541Y-83070819D02*
X134368303Y-83213676D01*
X134368303Y-83213676D02*
X134273065Y-83308914D01*
X134273065Y-83308914D02*
X134177827Y-83356533D01*
X135177827Y-83975580D02*
X135225446Y-84023200D01*
X135225446Y-84023200D02*
X135177827Y-84070819D01*
X135177827Y-84070819D02*
X135130208Y-84023200D01*
X135130208Y-84023200D02*
X135177827Y-83975580D01*
X135177827Y-83975580D02*
X135177827Y-84070819D01*
X135844493Y-83070819D02*
X135939731Y-83070819D01*
X135939731Y-83070819D02*
X136034969Y-83118438D01*
X136034969Y-83118438D02*
X136082588Y-83166057D01*
X136082588Y-83166057D02*
X136130207Y-83261295D01*
X136130207Y-83261295D02*
X136177826Y-83451771D01*
X136177826Y-83451771D02*
X136177826Y-83689866D01*
X136177826Y-83689866D02*
X136130207Y-83880342D01*
X136130207Y-83880342D02*
X136082588Y-83975580D01*
X136082588Y-83975580D02*
X136034969Y-84023200D01*
X136034969Y-84023200D02*
X135939731Y-84070819D01*
X135939731Y-84070819D02*
X135844493Y-84070819D01*
X135844493Y-84070819D02*
X135749255Y-84023200D01*
X135749255Y-84023200D02*
X135701636Y-83975580D01*
X135701636Y-83975580D02*
X135654017Y-83880342D01*
X135654017Y-83880342D02*
X135606398Y-83689866D01*
X135606398Y-83689866D02*
X135606398Y-83451771D01*
X135606398Y-83451771D02*
X135654017Y-83261295D01*
X135654017Y-83261295D02*
X135701636Y-83166057D01*
X135701636Y-83166057D02*
X135749255Y-83118438D01*
X135749255Y-83118438D02*
X135844493Y-83070819D01*
D10*
X138602834Y-79781820D02*
X138856834Y-80543820D01*
X138856834Y-80543820D02*
X139110834Y-79781820D01*
X139364834Y-80253535D02*
X139945406Y-80253535D01*
X121439691Y-51823677D02*
X121693691Y-51823677D01*
X121802548Y-52222820D02*
X121439691Y-52222820D01*
X121439691Y-52222820D02*
X121439691Y-51460820D01*
X121439691Y-51460820D02*
X121802548Y-51460820D01*
X122129120Y-51932535D02*
X122709692Y-51932535D01*
X122419406Y-52222820D02*
X122419406Y-51642249D01*
X106199691Y-71145820D02*
X106199691Y-70383820D01*
X106199691Y-70383820D02*
X106381120Y-70383820D01*
X106381120Y-70383820D02*
X106489977Y-70420106D01*
X106489977Y-70420106D02*
X106562548Y-70492677D01*
X106562548Y-70492677D02*
X106598834Y-70565249D01*
X106598834Y-70565249D02*
X106635120Y-70710392D01*
X106635120Y-70710392D02*
X106635120Y-70819249D01*
X106635120Y-70819249D02*
X106598834Y-70964392D01*
X106598834Y-70964392D02*
X106562548Y-71036963D01*
X106562548Y-71036963D02*
X106489977Y-71109535D01*
X106489977Y-71109535D02*
X106381120Y-71145820D01*
X106381120Y-71145820D02*
X106199691Y-71145820D01*
X106925405Y-70928106D02*
X107288263Y-70928106D01*
X106852834Y-71145820D02*
X107106834Y-70383820D01*
X107106834Y-70383820D02*
X107360834Y-71145820D01*
X107505977Y-70383820D02*
X107941406Y-70383820D01*
X107723691Y-71145820D02*
X107723691Y-70383820D01*
X108159119Y-70928106D02*
X108521977Y-70928106D01*
X108086548Y-71145820D02*
X108340548Y-70383820D01*
X108340548Y-70383820D02*
X108594548Y-71145820D01*
X132198405Y-52005106D02*
X132561263Y-52005106D01*
X132125834Y-52222820D02*
X132379834Y-51460820D01*
X132379834Y-51460820D02*
X132633834Y-52222820D01*
X132887834Y-51932535D02*
X133468406Y-51932535D01*
X109429120Y-68152249D02*
X109392834Y-68188535D01*
X109392834Y-68188535D02*
X109283977Y-68224820D01*
X109283977Y-68224820D02*
X109211405Y-68224820D01*
X109211405Y-68224820D02*
X109102548Y-68188535D01*
X109102548Y-68188535D02*
X109029977Y-68115963D01*
X109029977Y-68115963D02*
X108993691Y-68043392D01*
X108993691Y-68043392D02*
X108957405Y-67898249D01*
X108957405Y-67898249D02*
X108957405Y-67789392D01*
X108957405Y-67789392D02*
X108993691Y-67644249D01*
X108993691Y-67644249D02*
X109029977Y-67571677D01*
X109029977Y-67571677D02*
X109102548Y-67499106D01*
X109102548Y-67499106D02*
X109211405Y-67462820D01*
X109211405Y-67462820D02*
X109283977Y-67462820D01*
X109283977Y-67462820D02*
X109392834Y-67499106D01*
X109392834Y-67499106D02*
X109429120Y-67535392D01*
X110118548Y-68224820D02*
X109755691Y-68224820D01*
X109755691Y-68224820D02*
X109755691Y-67462820D01*
X110372548Y-68224820D02*
X110372548Y-67462820D01*
X110807977Y-68224820D02*
X110481405Y-67789392D01*
X110807977Y-67462820D02*
X110372548Y-67898249D01*
D11*
%TO.C,Y1*%
X82581809Y-78083628D02*
X82581809Y-78559819D01*
X82248476Y-77559819D02*
X82581809Y-78083628D01*
X82581809Y-78083628D02*
X82915142Y-77559819D01*
X83772285Y-78559819D02*
X83200857Y-78559819D01*
X83486571Y-78559819D02*
X83486571Y-77559819D01*
X83486571Y-77559819D02*
X83391333Y-77702676D01*
X83391333Y-77702676D02*
X83296095Y-77797914D01*
X83296095Y-77797914D02*
X83200857Y-77845533D01*
%TO.C,U1*%
X92710095Y-61430819D02*
X92710095Y-62240342D01*
X92710095Y-62240342D02*
X92757714Y-62335580D01*
X92757714Y-62335580D02*
X92805333Y-62383200D01*
X92805333Y-62383200D02*
X92900571Y-62430819D01*
X92900571Y-62430819D02*
X93091047Y-62430819D01*
X93091047Y-62430819D02*
X93186285Y-62383200D01*
X93186285Y-62383200D02*
X93233904Y-62335580D01*
X93233904Y-62335580D02*
X93281523Y-62240342D01*
X93281523Y-62240342D02*
X93281523Y-61430819D01*
X94281523Y-62430819D02*
X93710095Y-62430819D01*
X93995809Y-62430819D02*
X93995809Y-61430819D01*
X93995809Y-61430819D02*
X93900571Y-61573676D01*
X93900571Y-61573676D02*
X93805333Y-61668914D01*
X93805333Y-61668914D02*
X93710095Y-61716533D01*
X83224904Y-73083009D02*
X83367761Y-73130628D01*
X83367761Y-73130628D02*
X83415380Y-73178247D01*
X83415380Y-73178247D02*
X83462999Y-73273485D01*
X83462999Y-73273485D02*
X83462999Y-73416342D01*
X83462999Y-73416342D02*
X83415380Y-73511580D01*
X83415380Y-73511580D02*
X83367761Y-73559200D01*
X83367761Y-73559200D02*
X83272523Y-73606819D01*
X83272523Y-73606819D02*
X82891571Y-73606819D01*
X82891571Y-73606819D02*
X82891571Y-72606819D01*
X82891571Y-72606819D02*
X83224904Y-72606819D01*
X83224904Y-72606819D02*
X83320142Y-72654438D01*
X83320142Y-72654438D02*
X83367761Y-72702057D01*
X83367761Y-72702057D02*
X83415380Y-72797295D01*
X83415380Y-72797295D02*
X83415380Y-72892533D01*
X83415380Y-72892533D02*
X83367761Y-72987771D01*
X83367761Y-72987771D02*
X83320142Y-73035390D01*
X83320142Y-73035390D02*
X83224904Y-73083009D01*
X83224904Y-73083009D02*
X82891571Y-73083009D01*
X83748714Y-72606819D02*
X84320142Y-72606819D01*
X84034428Y-73606819D02*
X84034428Y-72606819D01*
X84796333Y-73035390D02*
X84701095Y-72987771D01*
X84701095Y-72987771D02*
X84653476Y-72940152D01*
X84653476Y-72940152D02*
X84605857Y-72844914D01*
X84605857Y-72844914D02*
X84605857Y-72797295D01*
X84605857Y-72797295D02*
X84653476Y-72702057D01*
X84653476Y-72702057D02*
X84701095Y-72654438D01*
X84701095Y-72654438D02*
X84796333Y-72606819D01*
X84796333Y-72606819D02*
X84986809Y-72606819D01*
X84986809Y-72606819D02*
X85082047Y-72654438D01*
X85082047Y-72654438D02*
X85129666Y-72702057D01*
X85129666Y-72702057D02*
X85177285Y-72797295D01*
X85177285Y-72797295D02*
X85177285Y-72844914D01*
X85177285Y-72844914D02*
X85129666Y-72940152D01*
X85129666Y-72940152D02*
X85082047Y-72987771D01*
X85082047Y-72987771D02*
X84986809Y-73035390D01*
X84986809Y-73035390D02*
X84796333Y-73035390D01*
X84796333Y-73035390D02*
X84701095Y-73083009D01*
X84701095Y-73083009D02*
X84653476Y-73130628D01*
X84653476Y-73130628D02*
X84605857Y-73225866D01*
X84605857Y-73225866D02*
X84605857Y-73416342D01*
X84605857Y-73416342D02*
X84653476Y-73511580D01*
X84653476Y-73511580D02*
X84701095Y-73559200D01*
X84701095Y-73559200D02*
X84796333Y-73606819D01*
X84796333Y-73606819D02*
X84986809Y-73606819D01*
X84986809Y-73606819D02*
X85082047Y-73559200D01*
X85082047Y-73559200D02*
X85129666Y-73511580D01*
X85129666Y-73511580D02*
X85177285Y-73416342D01*
X85177285Y-73416342D02*
X85177285Y-73225866D01*
X85177285Y-73225866D02*
X85129666Y-73130628D01*
X85129666Y-73130628D02*
X85082047Y-73083009D01*
X85082047Y-73083009D02*
X84986809Y-73035390D01*
X85510619Y-72606819D02*
X86129666Y-72606819D01*
X86129666Y-72606819D02*
X85796333Y-72987771D01*
X85796333Y-72987771D02*
X85939190Y-72987771D01*
X85939190Y-72987771D02*
X86034428Y-73035390D01*
X86034428Y-73035390D02*
X86082047Y-73083009D01*
X86082047Y-73083009D02*
X86129666Y-73178247D01*
X86129666Y-73178247D02*
X86129666Y-73416342D01*
X86129666Y-73416342D02*
X86082047Y-73511580D01*
X86082047Y-73511580D02*
X86034428Y-73559200D01*
X86034428Y-73559200D02*
X85939190Y-73606819D01*
X85939190Y-73606819D02*
X85653476Y-73606819D01*
X85653476Y-73606819D02*
X85558238Y-73559200D01*
X85558238Y-73559200D02*
X85510619Y-73511580D01*
X86510619Y-72702057D02*
X86558238Y-72654438D01*
X86558238Y-72654438D02*
X86653476Y-72606819D01*
X86653476Y-72606819D02*
X86891571Y-72606819D01*
X86891571Y-72606819D02*
X86986809Y-72654438D01*
X86986809Y-72654438D02*
X87034428Y-72702057D01*
X87034428Y-72702057D02*
X87082047Y-72797295D01*
X87082047Y-72797295D02*
X87082047Y-72892533D01*
X87082047Y-72892533D02*
X87034428Y-73035390D01*
X87034428Y-73035390D02*
X86463000Y-73606819D01*
X86463000Y-73606819D02*
X87082047Y-73606819D01*
%TO.C,C10*%
X93718142Y-59541580D02*
X93670523Y-59589200D01*
X93670523Y-59589200D02*
X93527666Y-59636819D01*
X93527666Y-59636819D02*
X93432428Y-59636819D01*
X93432428Y-59636819D02*
X93289571Y-59589200D01*
X93289571Y-59589200D02*
X93194333Y-59493961D01*
X93194333Y-59493961D02*
X93146714Y-59398723D01*
X93146714Y-59398723D02*
X93099095Y-59208247D01*
X93099095Y-59208247D02*
X93099095Y-59065390D01*
X93099095Y-59065390D02*
X93146714Y-58874914D01*
X93146714Y-58874914D02*
X93194333Y-58779676D01*
X93194333Y-58779676D02*
X93289571Y-58684438D01*
X93289571Y-58684438D02*
X93432428Y-58636819D01*
X93432428Y-58636819D02*
X93527666Y-58636819D01*
X93527666Y-58636819D02*
X93670523Y-58684438D01*
X93670523Y-58684438D02*
X93718142Y-58732057D01*
X94670523Y-59636819D02*
X94099095Y-59636819D01*
X94384809Y-59636819D02*
X94384809Y-58636819D01*
X94384809Y-58636819D02*
X94289571Y-58779676D01*
X94289571Y-58779676D02*
X94194333Y-58874914D01*
X94194333Y-58874914D02*
X94099095Y-58922533D01*
X95289571Y-58636819D02*
X95384809Y-58636819D01*
X95384809Y-58636819D02*
X95480047Y-58684438D01*
X95480047Y-58684438D02*
X95527666Y-58732057D01*
X95527666Y-58732057D02*
X95575285Y-58827295D01*
X95575285Y-58827295D02*
X95622904Y-59017771D01*
X95622904Y-59017771D02*
X95622904Y-59255866D01*
X95622904Y-59255866D02*
X95575285Y-59446342D01*
X95575285Y-59446342D02*
X95527666Y-59541580D01*
X95527666Y-59541580D02*
X95480047Y-59589200D01*
X95480047Y-59589200D02*
X95384809Y-59636819D01*
X95384809Y-59636819D02*
X95289571Y-59636819D01*
X95289571Y-59636819D02*
X95194333Y-59589200D01*
X95194333Y-59589200D02*
X95146714Y-59541580D01*
X95146714Y-59541580D02*
X95099095Y-59446342D01*
X95099095Y-59446342D02*
X95051476Y-59255866D01*
X95051476Y-59255866D02*
X95051476Y-59017771D01*
X95051476Y-59017771D02*
X95099095Y-58827295D01*
X95099095Y-58827295D02*
X95146714Y-58732057D01*
X95146714Y-58732057D02*
X95194333Y-58684438D01*
X95194333Y-58684438D02*
X95289571Y-58636819D01*
%TO.C,D1*%
X99591905Y-75859819D02*
X99591905Y-74859819D01*
X99591905Y-74859819D02*
X99830000Y-74859819D01*
X99830000Y-74859819D02*
X99972857Y-74907438D01*
X99972857Y-74907438D02*
X100068095Y-75002676D01*
X100068095Y-75002676D02*
X100115714Y-75097914D01*
X100115714Y-75097914D02*
X100163333Y-75288390D01*
X100163333Y-75288390D02*
X100163333Y-75431247D01*
X100163333Y-75431247D02*
X100115714Y-75621723D01*
X100115714Y-75621723D02*
X100068095Y-75716961D01*
X100068095Y-75716961D02*
X99972857Y-75812200D01*
X99972857Y-75812200D02*
X99830000Y-75859819D01*
X99830000Y-75859819D02*
X99591905Y-75859819D01*
X101115714Y-75859819D02*
X100544286Y-75859819D01*
X100830000Y-75859819D02*
X100830000Y-74859819D01*
X100830000Y-74859819D02*
X100734762Y-75002676D01*
X100734762Y-75002676D02*
X100639524Y-75097914D01*
X100639524Y-75097914D02*
X100544286Y-75145533D01*
D10*
%TO.C,J2*%
X89071000Y-54827590D02*
X89071000Y-55371876D01*
X89071000Y-55371876D02*
X89034715Y-55480733D01*
X89034715Y-55480733D02*
X88962143Y-55553305D01*
X88962143Y-55553305D02*
X88853286Y-55589590D01*
X88853286Y-55589590D02*
X88780715Y-55589590D01*
X89397571Y-54900162D02*
X89433857Y-54863876D01*
X89433857Y-54863876D02*
X89506429Y-54827590D01*
X89506429Y-54827590D02*
X89687857Y-54827590D01*
X89687857Y-54827590D02*
X89760429Y-54863876D01*
X89760429Y-54863876D02*
X89796714Y-54900162D01*
X89796714Y-54900162D02*
X89833000Y-54972733D01*
X89833000Y-54972733D02*
X89833000Y-55045305D01*
X89833000Y-55045305D02*
X89796714Y-55154162D01*
X89796714Y-55154162D02*
X89361286Y-55589590D01*
X89361286Y-55589590D02*
X89833000Y-55589590D01*
D11*
%TO.C,Q1*%
X122713761Y-59351057D02*
X122618523Y-59303438D01*
X122618523Y-59303438D02*
X122523285Y-59208200D01*
X122523285Y-59208200D02*
X122380428Y-59065342D01*
X122380428Y-59065342D02*
X122285190Y-59017723D01*
X122285190Y-59017723D02*
X122189952Y-59017723D01*
X122237571Y-59255819D02*
X122142333Y-59208200D01*
X122142333Y-59208200D02*
X122047095Y-59112961D01*
X122047095Y-59112961D02*
X121999476Y-58922485D01*
X121999476Y-58922485D02*
X121999476Y-58589152D01*
X121999476Y-58589152D02*
X122047095Y-58398676D01*
X122047095Y-58398676D02*
X122142333Y-58303438D01*
X122142333Y-58303438D02*
X122237571Y-58255819D01*
X122237571Y-58255819D02*
X122428047Y-58255819D01*
X122428047Y-58255819D02*
X122523285Y-58303438D01*
X122523285Y-58303438D02*
X122618523Y-58398676D01*
X122618523Y-58398676D02*
X122666142Y-58589152D01*
X122666142Y-58589152D02*
X122666142Y-58922485D01*
X122666142Y-58922485D02*
X122618523Y-59112961D01*
X122618523Y-59112961D02*
X122523285Y-59208200D01*
X122523285Y-59208200D02*
X122428047Y-59255819D01*
X122428047Y-59255819D02*
X122237571Y-59255819D01*
X123618523Y-59255819D02*
X123047095Y-59255819D01*
X123332809Y-59255819D02*
X123332809Y-58255819D01*
X123332809Y-58255819D02*
X123237571Y-58398676D01*
X123237571Y-58398676D02*
X123142333Y-58493914D01*
X123142333Y-58493914D02*
X123047095Y-58541533D01*
%TO.C,R6*%
X118578333Y-74368819D02*
X118245000Y-73892628D01*
X118006905Y-74368819D02*
X118006905Y-73368819D01*
X118006905Y-73368819D02*
X118387857Y-73368819D01*
X118387857Y-73368819D02*
X118483095Y-73416438D01*
X118483095Y-73416438D02*
X118530714Y-73464057D01*
X118530714Y-73464057D02*
X118578333Y-73559295D01*
X118578333Y-73559295D02*
X118578333Y-73702152D01*
X118578333Y-73702152D02*
X118530714Y-73797390D01*
X118530714Y-73797390D02*
X118483095Y-73845009D01*
X118483095Y-73845009D02*
X118387857Y-73892628D01*
X118387857Y-73892628D02*
X118006905Y-73892628D01*
X119435476Y-73368819D02*
X119245000Y-73368819D01*
X119245000Y-73368819D02*
X119149762Y-73416438D01*
X119149762Y-73416438D02*
X119102143Y-73464057D01*
X119102143Y-73464057D02*
X119006905Y-73606914D01*
X119006905Y-73606914D02*
X118959286Y-73797390D01*
X118959286Y-73797390D02*
X118959286Y-74178342D01*
X118959286Y-74178342D02*
X119006905Y-74273580D01*
X119006905Y-74273580D02*
X119054524Y-74321200D01*
X119054524Y-74321200D02*
X119149762Y-74368819D01*
X119149762Y-74368819D02*
X119340238Y-74368819D01*
X119340238Y-74368819D02*
X119435476Y-74321200D01*
X119435476Y-74321200D02*
X119483095Y-74273580D01*
X119483095Y-74273580D02*
X119530714Y-74178342D01*
X119530714Y-74178342D02*
X119530714Y-73940247D01*
X119530714Y-73940247D02*
X119483095Y-73845009D01*
X119483095Y-73845009D02*
X119435476Y-73797390D01*
X119435476Y-73797390D02*
X119340238Y-73749771D01*
X119340238Y-73749771D02*
X119149762Y-73749771D01*
X119149762Y-73749771D02*
X119054524Y-73797390D01*
X119054524Y-73797390D02*
X119006905Y-73845009D01*
X119006905Y-73845009D02*
X118959286Y-73940247D01*
%TO.C,C3*%
X131151333Y-66145580D02*
X131103714Y-66193200D01*
X131103714Y-66193200D02*
X130960857Y-66240819D01*
X130960857Y-66240819D02*
X130865619Y-66240819D01*
X130865619Y-66240819D02*
X130722762Y-66193200D01*
X130722762Y-66193200D02*
X130627524Y-66097961D01*
X130627524Y-66097961D02*
X130579905Y-66002723D01*
X130579905Y-66002723D02*
X130532286Y-65812247D01*
X130532286Y-65812247D02*
X130532286Y-65669390D01*
X130532286Y-65669390D02*
X130579905Y-65478914D01*
X130579905Y-65478914D02*
X130627524Y-65383676D01*
X130627524Y-65383676D02*
X130722762Y-65288438D01*
X130722762Y-65288438D02*
X130865619Y-65240819D01*
X130865619Y-65240819D02*
X130960857Y-65240819D01*
X130960857Y-65240819D02*
X131103714Y-65288438D01*
X131103714Y-65288438D02*
X131151333Y-65336057D01*
X131484667Y-65240819D02*
X132103714Y-65240819D01*
X132103714Y-65240819D02*
X131770381Y-65621771D01*
X131770381Y-65621771D02*
X131913238Y-65621771D01*
X131913238Y-65621771D02*
X132008476Y-65669390D01*
X132008476Y-65669390D02*
X132056095Y-65717009D01*
X132056095Y-65717009D02*
X132103714Y-65812247D01*
X132103714Y-65812247D02*
X132103714Y-66050342D01*
X132103714Y-66050342D02*
X132056095Y-66145580D01*
X132056095Y-66145580D02*
X132008476Y-66193200D01*
X132008476Y-66193200D02*
X131913238Y-66240819D01*
X131913238Y-66240819D02*
X131627524Y-66240819D01*
X131627524Y-66240819D02*
X131532286Y-66193200D01*
X131532286Y-66193200D02*
X131484667Y-66145580D01*
%TO.C,R3*%
X114895333Y-67891819D02*
X114562000Y-67415628D01*
X114323905Y-67891819D02*
X114323905Y-66891819D01*
X114323905Y-66891819D02*
X114704857Y-66891819D01*
X114704857Y-66891819D02*
X114800095Y-66939438D01*
X114800095Y-66939438D02*
X114847714Y-66987057D01*
X114847714Y-66987057D02*
X114895333Y-67082295D01*
X114895333Y-67082295D02*
X114895333Y-67225152D01*
X114895333Y-67225152D02*
X114847714Y-67320390D01*
X114847714Y-67320390D02*
X114800095Y-67368009D01*
X114800095Y-67368009D02*
X114704857Y-67415628D01*
X114704857Y-67415628D02*
X114323905Y-67415628D01*
X115228667Y-66891819D02*
X115847714Y-66891819D01*
X115847714Y-66891819D02*
X115514381Y-67272771D01*
X115514381Y-67272771D02*
X115657238Y-67272771D01*
X115657238Y-67272771D02*
X115752476Y-67320390D01*
X115752476Y-67320390D02*
X115800095Y-67368009D01*
X115800095Y-67368009D02*
X115847714Y-67463247D01*
X115847714Y-67463247D02*
X115847714Y-67701342D01*
X115847714Y-67701342D02*
X115800095Y-67796580D01*
X115800095Y-67796580D02*
X115752476Y-67844200D01*
X115752476Y-67844200D02*
X115657238Y-67891819D01*
X115657238Y-67891819D02*
X115371524Y-67891819D01*
X115371524Y-67891819D02*
X115276286Y-67844200D01*
X115276286Y-67844200D02*
X115228667Y-67796580D01*
%TO.C,R7*%
X114006333Y-57825819D02*
X113673000Y-57349628D01*
X113434905Y-57825819D02*
X113434905Y-56825819D01*
X113434905Y-56825819D02*
X113815857Y-56825819D01*
X113815857Y-56825819D02*
X113911095Y-56873438D01*
X113911095Y-56873438D02*
X113958714Y-56921057D01*
X113958714Y-56921057D02*
X114006333Y-57016295D01*
X114006333Y-57016295D02*
X114006333Y-57159152D01*
X114006333Y-57159152D02*
X113958714Y-57254390D01*
X113958714Y-57254390D02*
X113911095Y-57302009D01*
X113911095Y-57302009D02*
X113815857Y-57349628D01*
X113815857Y-57349628D02*
X113434905Y-57349628D01*
X114339667Y-56825819D02*
X115006333Y-56825819D01*
X115006333Y-56825819D02*
X114577762Y-57825819D01*
%TO.C,R9*%
X116673333Y-62430819D02*
X116340000Y-61954628D01*
X116101905Y-62430819D02*
X116101905Y-61430819D01*
X116101905Y-61430819D02*
X116482857Y-61430819D01*
X116482857Y-61430819D02*
X116578095Y-61478438D01*
X116578095Y-61478438D02*
X116625714Y-61526057D01*
X116625714Y-61526057D02*
X116673333Y-61621295D01*
X116673333Y-61621295D02*
X116673333Y-61764152D01*
X116673333Y-61764152D02*
X116625714Y-61859390D01*
X116625714Y-61859390D02*
X116578095Y-61907009D01*
X116578095Y-61907009D02*
X116482857Y-61954628D01*
X116482857Y-61954628D02*
X116101905Y-61954628D01*
X117149524Y-62430819D02*
X117340000Y-62430819D01*
X117340000Y-62430819D02*
X117435238Y-62383200D01*
X117435238Y-62383200D02*
X117482857Y-62335580D01*
X117482857Y-62335580D02*
X117578095Y-62192723D01*
X117578095Y-62192723D02*
X117625714Y-62002247D01*
X117625714Y-62002247D02*
X117625714Y-61621295D01*
X117625714Y-61621295D02*
X117578095Y-61526057D01*
X117578095Y-61526057D02*
X117530476Y-61478438D01*
X117530476Y-61478438D02*
X117435238Y-61430819D01*
X117435238Y-61430819D02*
X117244762Y-61430819D01*
X117244762Y-61430819D02*
X117149524Y-61478438D01*
X117149524Y-61478438D02*
X117101905Y-61526057D01*
X117101905Y-61526057D02*
X117054286Y-61621295D01*
X117054286Y-61621295D02*
X117054286Y-61859390D01*
X117054286Y-61859390D02*
X117101905Y-61954628D01*
X117101905Y-61954628D02*
X117149524Y-62002247D01*
X117149524Y-62002247D02*
X117244762Y-62049866D01*
X117244762Y-62049866D02*
X117435238Y-62049866D01*
X117435238Y-62049866D02*
X117530476Y-62002247D01*
X117530476Y-62002247D02*
X117578095Y-61954628D01*
X117578095Y-61954628D02*
X117625714Y-61859390D01*
%TO.C,R8*%
X119213333Y-77670819D02*
X118880000Y-77194628D01*
X118641905Y-77670819D02*
X118641905Y-76670819D01*
X118641905Y-76670819D02*
X119022857Y-76670819D01*
X119022857Y-76670819D02*
X119118095Y-76718438D01*
X119118095Y-76718438D02*
X119165714Y-76766057D01*
X119165714Y-76766057D02*
X119213333Y-76861295D01*
X119213333Y-76861295D02*
X119213333Y-77004152D01*
X119213333Y-77004152D02*
X119165714Y-77099390D01*
X119165714Y-77099390D02*
X119118095Y-77147009D01*
X119118095Y-77147009D02*
X119022857Y-77194628D01*
X119022857Y-77194628D02*
X118641905Y-77194628D01*
X119784762Y-77099390D02*
X119689524Y-77051771D01*
X119689524Y-77051771D02*
X119641905Y-77004152D01*
X119641905Y-77004152D02*
X119594286Y-76908914D01*
X119594286Y-76908914D02*
X119594286Y-76861295D01*
X119594286Y-76861295D02*
X119641905Y-76766057D01*
X119641905Y-76766057D02*
X119689524Y-76718438D01*
X119689524Y-76718438D02*
X119784762Y-76670819D01*
X119784762Y-76670819D02*
X119975238Y-76670819D01*
X119975238Y-76670819D02*
X120070476Y-76718438D01*
X120070476Y-76718438D02*
X120118095Y-76766057D01*
X120118095Y-76766057D02*
X120165714Y-76861295D01*
X120165714Y-76861295D02*
X120165714Y-76908914D01*
X120165714Y-76908914D02*
X120118095Y-77004152D01*
X120118095Y-77004152D02*
X120070476Y-77051771D01*
X120070476Y-77051771D02*
X119975238Y-77099390D01*
X119975238Y-77099390D02*
X119784762Y-77099390D01*
X119784762Y-77099390D02*
X119689524Y-77147009D01*
X119689524Y-77147009D02*
X119641905Y-77194628D01*
X119641905Y-77194628D02*
X119594286Y-77289866D01*
X119594286Y-77289866D02*
X119594286Y-77480342D01*
X119594286Y-77480342D02*
X119641905Y-77575580D01*
X119641905Y-77575580D02*
X119689524Y-77623200D01*
X119689524Y-77623200D02*
X119784762Y-77670819D01*
X119784762Y-77670819D02*
X119975238Y-77670819D01*
X119975238Y-77670819D02*
X120070476Y-77623200D01*
X120070476Y-77623200D02*
X120118095Y-77575580D01*
X120118095Y-77575580D02*
X120165714Y-77480342D01*
X120165714Y-77480342D02*
X120165714Y-77289866D01*
X120165714Y-77289866D02*
X120118095Y-77194628D01*
X120118095Y-77194628D02*
X120070476Y-77147009D01*
X120070476Y-77147009D02*
X119975238Y-77099390D01*
%TO.C,U2*%
X125743095Y-72860819D02*
X125743095Y-73670342D01*
X125743095Y-73670342D02*
X125790714Y-73765580D01*
X125790714Y-73765580D02*
X125838333Y-73813200D01*
X125838333Y-73813200D02*
X125933571Y-73860819D01*
X125933571Y-73860819D02*
X126124047Y-73860819D01*
X126124047Y-73860819D02*
X126219285Y-73813200D01*
X126219285Y-73813200D02*
X126266904Y-73765580D01*
X126266904Y-73765580D02*
X126314523Y-73670342D01*
X126314523Y-73670342D02*
X126314523Y-72860819D01*
X126743095Y-72956057D02*
X126790714Y-72908438D01*
X126790714Y-72908438D02*
X126885952Y-72860819D01*
X126885952Y-72860819D02*
X127124047Y-72860819D01*
X127124047Y-72860819D02*
X127219285Y-72908438D01*
X127219285Y-72908438D02*
X127266904Y-72956057D01*
X127266904Y-72956057D02*
X127314523Y-73051295D01*
X127314523Y-73051295D02*
X127314523Y-73146533D01*
X127314523Y-73146533D02*
X127266904Y-73289390D01*
X127266904Y-73289390D02*
X126695476Y-73860819D01*
X126695476Y-73860819D02*
X127314523Y-73860819D01*
%TO.C,C5*%
X132802333Y-73511580D02*
X132754714Y-73559200D01*
X132754714Y-73559200D02*
X132611857Y-73606819D01*
X132611857Y-73606819D02*
X132516619Y-73606819D01*
X132516619Y-73606819D02*
X132373762Y-73559200D01*
X132373762Y-73559200D02*
X132278524Y-73463961D01*
X132278524Y-73463961D02*
X132230905Y-73368723D01*
X132230905Y-73368723D02*
X132183286Y-73178247D01*
X132183286Y-73178247D02*
X132183286Y-73035390D01*
X132183286Y-73035390D02*
X132230905Y-72844914D01*
X132230905Y-72844914D02*
X132278524Y-72749676D01*
X132278524Y-72749676D02*
X132373762Y-72654438D01*
X132373762Y-72654438D02*
X132516619Y-72606819D01*
X132516619Y-72606819D02*
X132611857Y-72606819D01*
X132611857Y-72606819D02*
X132754714Y-72654438D01*
X132754714Y-72654438D02*
X132802333Y-72702057D01*
X133707095Y-72606819D02*
X133230905Y-72606819D01*
X133230905Y-72606819D02*
X133183286Y-73083009D01*
X133183286Y-73083009D02*
X133230905Y-73035390D01*
X133230905Y-73035390D02*
X133326143Y-72987771D01*
X133326143Y-72987771D02*
X133564238Y-72987771D01*
X133564238Y-72987771D02*
X133659476Y-73035390D01*
X133659476Y-73035390D02*
X133707095Y-73083009D01*
X133707095Y-73083009D02*
X133754714Y-73178247D01*
X133754714Y-73178247D02*
X133754714Y-73416342D01*
X133754714Y-73416342D02*
X133707095Y-73511580D01*
X133707095Y-73511580D02*
X133659476Y-73559200D01*
X133659476Y-73559200D02*
X133564238Y-73606819D01*
X133564238Y-73606819D02*
X133326143Y-73606819D01*
X133326143Y-73606819D02*
X133230905Y-73559200D01*
X133230905Y-73559200D02*
X133183286Y-73511580D01*
%TO.C,C4*%
X119848333Y-67923580D02*
X119800714Y-67971200D01*
X119800714Y-67971200D02*
X119657857Y-68018819D01*
X119657857Y-68018819D02*
X119562619Y-68018819D01*
X119562619Y-68018819D02*
X119419762Y-67971200D01*
X119419762Y-67971200D02*
X119324524Y-67875961D01*
X119324524Y-67875961D02*
X119276905Y-67780723D01*
X119276905Y-67780723D02*
X119229286Y-67590247D01*
X119229286Y-67590247D02*
X119229286Y-67447390D01*
X119229286Y-67447390D02*
X119276905Y-67256914D01*
X119276905Y-67256914D02*
X119324524Y-67161676D01*
X119324524Y-67161676D02*
X119419762Y-67066438D01*
X119419762Y-67066438D02*
X119562619Y-67018819D01*
X119562619Y-67018819D02*
X119657857Y-67018819D01*
X119657857Y-67018819D02*
X119800714Y-67066438D01*
X119800714Y-67066438D02*
X119848333Y-67114057D01*
X120705476Y-67352152D02*
X120705476Y-68018819D01*
X120467381Y-66971200D02*
X120229286Y-67685485D01*
X120229286Y-67685485D02*
X120848333Y-67685485D01*
%TO.C,C7*%
X122007333Y-64748580D02*
X121959714Y-64796200D01*
X121959714Y-64796200D02*
X121816857Y-64843819D01*
X121816857Y-64843819D02*
X121721619Y-64843819D01*
X121721619Y-64843819D02*
X121578762Y-64796200D01*
X121578762Y-64796200D02*
X121483524Y-64700961D01*
X121483524Y-64700961D02*
X121435905Y-64605723D01*
X121435905Y-64605723D02*
X121388286Y-64415247D01*
X121388286Y-64415247D02*
X121388286Y-64272390D01*
X121388286Y-64272390D02*
X121435905Y-64081914D01*
X121435905Y-64081914D02*
X121483524Y-63986676D01*
X121483524Y-63986676D02*
X121578762Y-63891438D01*
X121578762Y-63891438D02*
X121721619Y-63843819D01*
X121721619Y-63843819D02*
X121816857Y-63843819D01*
X121816857Y-63843819D02*
X121959714Y-63891438D01*
X121959714Y-63891438D02*
X122007333Y-63939057D01*
X122340667Y-63843819D02*
X123007333Y-63843819D01*
X123007333Y-63843819D02*
X122578762Y-64843819D01*
%TO.C,R4*%
X115403333Y-70685819D02*
X115070000Y-70209628D01*
X114831905Y-70685819D02*
X114831905Y-69685819D01*
X114831905Y-69685819D02*
X115212857Y-69685819D01*
X115212857Y-69685819D02*
X115308095Y-69733438D01*
X115308095Y-69733438D02*
X115355714Y-69781057D01*
X115355714Y-69781057D02*
X115403333Y-69876295D01*
X115403333Y-69876295D02*
X115403333Y-70019152D01*
X115403333Y-70019152D02*
X115355714Y-70114390D01*
X115355714Y-70114390D02*
X115308095Y-70162009D01*
X115308095Y-70162009D02*
X115212857Y-70209628D01*
X115212857Y-70209628D02*
X114831905Y-70209628D01*
X116260476Y-70019152D02*
X116260476Y-70685819D01*
X116022381Y-69638200D02*
X115784286Y-70352485D01*
X115784286Y-70352485D02*
X116403333Y-70352485D01*
%TO.C,C1*%
X82891333Y-81779580D02*
X82843714Y-81827200D01*
X82843714Y-81827200D02*
X82700857Y-81874819D01*
X82700857Y-81874819D02*
X82605619Y-81874819D01*
X82605619Y-81874819D02*
X82462762Y-81827200D01*
X82462762Y-81827200D02*
X82367524Y-81731961D01*
X82367524Y-81731961D02*
X82319905Y-81636723D01*
X82319905Y-81636723D02*
X82272286Y-81446247D01*
X82272286Y-81446247D02*
X82272286Y-81303390D01*
X82272286Y-81303390D02*
X82319905Y-81112914D01*
X82319905Y-81112914D02*
X82367524Y-81017676D01*
X82367524Y-81017676D02*
X82462762Y-80922438D01*
X82462762Y-80922438D02*
X82605619Y-80874819D01*
X82605619Y-80874819D02*
X82700857Y-80874819D01*
X82700857Y-80874819D02*
X82843714Y-80922438D01*
X82843714Y-80922438D02*
X82891333Y-80970057D01*
X83843714Y-81874819D02*
X83272286Y-81874819D01*
X83558000Y-81874819D02*
X83558000Y-80874819D01*
X83558000Y-80874819D02*
X83462762Y-81017676D01*
X83462762Y-81017676D02*
X83367524Y-81112914D01*
X83367524Y-81112914D02*
X83272286Y-81160533D01*
%TO.C,C2*%
X89114333Y-81766580D02*
X89066714Y-81814200D01*
X89066714Y-81814200D02*
X88923857Y-81861819D01*
X88923857Y-81861819D02*
X88828619Y-81861819D01*
X88828619Y-81861819D02*
X88685762Y-81814200D01*
X88685762Y-81814200D02*
X88590524Y-81718961D01*
X88590524Y-81718961D02*
X88542905Y-81623723D01*
X88542905Y-81623723D02*
X88495286Y-81433247D01*
X88495286Y-81433247D02*
X88495286Y-81290390D01*
X88495286Y-81290390D02*
X88542905Y-81099914D01*
X88542905Y-81099914D02*
X88590524Y-81004676D01*
X88590524Y-81004676D02*
X88685762Y-80909438D01*
X88685762Y-80909438D02*
X88828619Y-80861819D01*
X88828619Y-80861819D02*
X88923857Y-80861819D01*
X88923857Y-80861819D02*
X89066714Y-80909438D01*
X89066714Y-80909438D02*
X89114333Y-80957057D01*
X89495286Y-80957057D02*
X89542905Y-80909438D01*
X89542905Y-80909438D02*
X89638143Y-80861819D01*
X89638143Y-80861819D02*
X89876238Y-80861819D01*
X89876238Y-80861819D02*
X89971476Y-80909438D01*
X89971476Y-80909438D02*
X90019095Y-80957057D01*
X90019095Y-80957057D02*
X90066714Y-81052295D01*
X90066714Y-81052295D02*
X90066714Y-81147533D01*
X90066714Y-81147533D02*
X90019095Y-81290390D01*
X90019095Y-81290390D02*
X89447667Y-81861819D01*
X89447667Y-81861819D02*
X90066714Y-81861819D01*
%TO.C,R1*%
X131405333Y-61668819D02*
X131072000Y-61192628D01*
X130833905Y-61668819D02*
X130833905Y-60668819D01*
X130833905Y-60668819D02*
X131214857Y-60668819D01*
X131214857Y-60668819D02*
X131310095Y-60716438D01*
X131310095Y-60716438D02*
X131357714Y-60764057D01*
X131357714Y-60764057D02*
X131405333Y-60859295D01*
X131405333Y-60859295D02*
X131405333Y-61002152D01*
X131405333Y-61002152D02*
X131357714Y-61097390D01*
X131357714Y-61097390D02*
X131310095Y-61145009D01*
X131310095Y-61145009D02*
X131214857Y-61192628D01*
X131214857Y-61192628D02*
X130833905Y-61192628D01*
X132357714Y-61668819D02*
X131786286Y-61668819D01*
X132072000Y-61668819D02*
X132072000Y-60668819D01*
X132072000Y-60668819D02*
X131976762Y-60811676D01*
X131976762Y-60811676D02*
X131881524Y-60906914D01*
X131881524Y-60906914D02*
X131786286Y-60954533D01*
%TO.C,C6*%
X132789333Y-69574580D02*
X132741714Y-69622200D01*
X132741714Y-69622200D02*
X132598857Y-69669819D01*
X132598857Y-69669819D02*
X132503619Y-69669819D01*
X132503619Y-69669819D02*
X132360762Y-69622200D01*
X132360762Y-69622200D02*
X132265524Y-69526961D01*
X132265524Y-69526961D02*
X132217905Y-69431723D01*
X132217905Y-69431723D02*
X132170286Y-69241247D01*
X132170286Y-69241247D02*
X132170286Y-69098390D01*
X132170286Y-69098390D02*
X132217905Y-68907914D01*
X132217905Y-68907914D02*
X132265524Y-68812676D01*
X132265524Y-68812676D02*
X132360762Y-68717438D01*
X132360762Y-68717438D02*
X132503619Y-68669819D01*
X132503619Y-68669819D02*
X132598857Y-68669819D01*
X132598857Y-68669819D02*
X132741714Y-68717438D01*
X132741714Y-68717438D02*
X132789333Y-68765057D01*
X133646476Y-68669819D02*
X133456000Y-68669819D01*
X133456000Y-68669819D02*
X133360762Y-68717438D01*
X133360762Y-68717438D02*
X133313143Y-68765057D01*
X133313143Y-68765057D02*
X133217905Y-68907914D01*
X133217905Y-68907914D02*
X133170286Y-69098390D01*
X133170286Y-69098390D02*
X133170286Y-69479342D01*
X133170286Y-69479342D02*
X133217905Y-69574580D01*
X133217905Y-69574580D02*
X133265524Y-69622200D01*
X133265524Y-69622200D02*
X133360762Y-69669819D01*
X133360762Y-69669819D02*
X133551238Y-69669819D01*
X133551238Y-69669819D02*
X133646476Y-69622200D01*
X133646476Y-69622200D02*
X133694095Y-69574580D01*
X133694095Y-69574580D02*
X133741714Y-69479342D01*
X133741714Y-69479342D02*
X133741714Y-69241247D01*
X133741714Y-69241247D02*
X133694095Y-69146009D01*
X133694095Y-69146009D02*
X133646476Y-69098390D01*
X133646476Y-69098390D02*
X133551238Y-69050771D01*
X133551238Y-69050771D02*
X133360762Y-69050771D01*
X133360762Y-69050771D02*
X133265524Y-69098390D01*
X133265524Y-69098390D02*
X133217905Y-69146009D01*
X133217905Y-69146009D02*
X133170286Y-69241247D01*
%TO.C,C9*%
X131024333Y-78464580D02*
X130976714Y-78512200D01*
X130976714Y-78512200D02*
X130833857Y-78559819D01*
X130833857Y-78559819D02*
X130738619Y-78559819D01*
X130738619Y-78559819D02*
X130595762Y-78512200D01*
X130595762Y-78512200D02*
X130500524Y-78416961D01*
X130500524Y-78416961D02*
X130452905Y-78321723D01*
X130452905Y-78321723D02*
X130405286Y-78131247D01*
X130405286Y-78131247D02*
X130405286Y-77988390D01*
X130405286Y-77988390D02*
X130452905Y-77797914D01*
X130452905Y-77797914D02*
X130500524Y-77702676D01*
X130500524Y-77702676D02*
X130595762Y-77607438D01*
X130595762Y-77607438D02*
X130738619Y-77559819D01*
X130738619Y-77559819D02*
X130833857Y-77559819D01*
X130833857Y-77559819D02*
X130976714Y-77607438D01*
X130976714Y-77607438D02*
X131024333Y-77655057D01*
X131500524Y-78559819D02*
X131691000Y-78559819D01*
X131691000Y-78559819D02*
X131786238Y-78512200D01*
X131786238Y-78512200D02*
X131833857Y-78464580D01*
X131833857Y-78464580D02*
X131929095Y-78321723D01*
X131929095Y-78321723D02*
X131976714Y-78131247D01*
X131976714Y-78131247D02*
X131976714Y-77750295D01*
X131976714Y-77750295D02*
X131929095Y-77655057D01*
X131929095Y-77655057D02*
X131881476Y-77607438D01*
X131881476Y-77607438D02*
X131786238Y-77559819D01*
X131786238Y-77559819D02*
X131595762Y-77559819D01*
X131595762Y-77559819D02*
X131500524Y-77607438D01*
X131500524Y-77607438D02*
X131452905Y-77655057D01*
X131452905Y-77655057D02*
X131405286Y-77750295D01*
X131405286Y-77750295D02*
X131405286Y-77988390D01*
X131405286Y-77988390D02*
X131452905Y-78083628D01*
X131452905Y-78083628D02*
X131500524Y-78131247D01*
X131500524Y-78131247D02*
X131595762Y-78178866D01*
X131595762Y-78178866D02*
X131786238Y-78178866D01*
X131786238Y-78178866D02*
X131881476Y-78131247D01*
X131881476Y-78131247D02*
X131929095Y-78083628D01*
X131929095Y-78083628D02*
X131976714Y-77988390D01*
%TO.C,R2*%
X125817333Y-61668819D02*
X125484000Y-61192628D01*
X125245905Y-61668819D02*
X125245905Y-60668819D01*
X125245905Y-60668819D02*
X125626857Y-60668819D01*
X125626857Y-60668819D02*
X125722095Y-60716438D01*
X125722095Y-60716438D02*
X125769714Y-60764057D01*
X125769714Y-60764057D02*
X125817333Y-60859295D01*
X125817333Y-60859295D02*
X125817333Y-61002152D01*
X125817333Y-61002152D02*
X125769714Y-61097390D01*
X125769714Y-61097390D02*
X125722095Y-61145009D01*
X125722095Y-61145009D02*
X125626857Y-61192628D01*
X125626857Y-61192628D02*
X125245905Y-61192628D01*
X126198286Y-60764057D02*
X126245905Y-60716438D01*
X126245905Y-60716438D02*
X126341143Y-60668819D01*
X126341143Y-60668819D02*
X126579238Y-60668819D01*
X126579238Y-60668819D02*
X126674476Y-60716438D01*
X126674476Y-60716438D02*
X126722095Y-60764057D01*
X126722095Y-60764057D02*
X126769714Y-60859295D01*
X126769714Y-60859295D02*
X126769714Y-60954533D01*
X126769714Y-60954533D02*
X126722095Y-61097390D01*
X126722095Y-61097390D02*
X126150667Y-61668819D01*
X126150667Y-61668819D02*
X126769714Y-61668819D01*
%TO.C,C8*%
X119594333Y-56366580D02*
X119546714Y-56414200D01*
X119546714Y-56414200D02*
X119403857Y-56461819D01*
X119403857Y-56461819D02*
X119308619Y-56461819D01*
X119308619Y-56461819D02*
X119165762Y-56414200D01*
X119165762Y-56414200D02*
X119070524Y-56318961D01*
X119070524Y-56318961D02*
X119022905Y-56223723D01*
X119022905Y-56223723D02*
X118975286Y-56033247D01*
X118975286Y-56033247D02*
X118975286Y-55890390D01*
X118975286Y-55890390D02*
X119022905Y-55699914D01*
X119022905Y-55699914D02*
X119070524Y-55604676D01*
X119070524Y-55604676D02*
X119165762Y-55509438D01*
X119165762Y-55509438D02*
X119308619Y-55461819D01*
X119308619Y-55461819D02*
X119403857Y-55461819D01*
X119403857Y-55461819D02*
X119546714Y-55509438D01*
X119546714Y-55509438D02*
X119594333Y-55557057D01*
X120165762Y-55890390D02*
X120070524Y-55842771D01*
X120070524Y-55842771D02*
X120022905Y-55795152D01*
X120022905Y-55795152D02*
X119975286Y-55699914D01*
X119975286Y-55699914D02*
X119975286Y-55652295D01*
X119975286Y-55652295D02*
X120022905Y-55557057D01*
X120022905Y-55557057D02*
X120070524Y-55509438D01*
X120070524Y-55509438D02*
X120165762Y-55461819D01*
X120165762Y-55461819D02*
X120356238Y-55461819D01*
X120356238Y-55461819D02*
X120451476Y-55509438D01*
X120451476Y-55509438D02*
X120499095Y-55557057D01*
X120499095Y-55557057D02*
X120546714Y-55652295D01*
X120546714Y-55652295D02*
X120546714Y-55699914D01*
X120546714Y-55699914D02*
X120499095Y-55795152D01*
X120499095Y-55795152D02*
X120451476Y-55842771D01*
X120451476Y-55842771D02*
X120356238Y-55890390D01*
X120356238Y-55890390D02*
X120165762Y-55890390D01*
X120165762Y-55890390D02*
X120070524Y-55938009D01*
X120070524Y-55938009D02*
X120022905Y-55985628D01*
X120022905Y-55985628D02*
X119975286Y-56080866D01*
X119975286Y-56080866D02*
X119975286Y-56271342D01*
X119975286Y-56271342D02*
X120022905Y-56366580D01*
X120022905Y-56366580D02*
X120070524Y-56414200D01*
X120070524Y-56414200D02*
X120165762Y-56461819D01*
X120165762Y-56461819D02*
X120356238Y-56461819D01*
X120356238Y-56461819D02*
X120451476Y-56414200D01*
X120451476Y-56414200D02*
X120499095Y-56366580D01*
X120499095Y-56366580D02*
X120546714Y-56271342D01*
X120546714Y-56271342D02*
X120546714Y-56080866D01*
X120546714Y-56080866D02*
X120499095Y-55985628D01*
X120499095Y-55985628D02*
X120451476Y-55938009D01*
X120451476Y-55938009D02*
X120356238Y-55890390D01*
%TO.C,R5*%
X121753333Y-76179819D02*
X121420000Y-75703628D01*
X121181905Y-76179819D02*
X121181905Y-75179819D01*
X121181905Y-75179819D02*
X121562857Y-75179819D01*
X121562857Y-75179819D02*
X121658095Y-75227438D01*
X121658095Y-75227438D02*
X121705714Y-75275057D01*
X121705714Y-75275057D02*
X121753333Y-75370295D01*
X121753333Y-75370295D02*
X121753333Y-75513152D01*
X121753333Y-75513152D02*
X121705714Y-75608390D01*
X121705714Y-75608390D02*
X121658095Y-75656009D01*
X121658095Y-75656009D02*
X121562857Y-75703628D01*
X121562857Y-75703628D02*
X121181905Y-75703628D01*
X122658095Y-75179819D02*
X122181905Y-75179819D01*
X122181905Y-75179819D02*
X122134286Y-75656009D01*
X122134286Y-75656009D02*
X122181905Y-75608390D01*
X122181905Y-75608390D02*
X122277143Y-75560771D01*
X122277143Y-75560771D02*
X122515238Y-75560771D01*
X122515238Y-75560771D02*
X122610476Y-75608390D01*
X122610476Y-75608390D02*
X122658095Y-75656009D01*
X122658095Y-75656009D02*
X122705714Y-75751247D01*
X122705714Y-75751247D02*
X122705714Y-75989342D01*
X122705714Y-75989342D02*
X122658095Y-76084580D01*
X122658095Y-76084580D02*
X122610476Y-76132200D01*
X122610476Y-76132200D02*
X122515238Y-76179819D01*
X122515238Y-76179819D02*
X122277143Y-76179819D01*
X122277143Y-76179819D02*
X122181905Y-76132200D01*
X122181905Y-76132200D02*
X122134286Y-76084580D01*
D12*
%TO.C,Y1*%
X86634000Y-78980000D02*
X85618000Y-78980000D01*
X86634000Y-77230000D02*
X85618000Y-77230000D01*
D13*
%TO.C,U1*%
X92087700Y-75311000D02*
G75*
G03*
X92387420Y-75311000I149860J0D01*
G01*
X92387420Y-75311000D02*
G75*
G03*
X92087700Y-75311000I-149860J0D01*
G01*
X91648280Y-61310520D02*
X92229940Y-61310520D01*
D14*
X91648280Y-61310520D02*
X92237560Y-61313060D01*
D13*
X76238100Y-61310520D02*
X76238100Y-61313060D01*
D14*
X92237560Y-61313060D02*
X92237560Y-75311000D01*
D13*
X92237560Y-61315600D02*
X92237560Y-75313540D01*
D14*
X82250280Y-61338460D02*
X82839560Y-61341000D01*
D13*
X92237560Y-62712600D02*
X92237560Y-62712600D01*
X92237560Y-62712600D02*
X92237560Y-75311000D01*
X93149420Y-75311000D02*
X92387420Y-75311000D01*
X92387420Y-75311000D02*
X92237560Y-75311000D01*
X92237560Y-75311000D02*
X92237560Y-62712600D01*
X92237560Y-75311000D02*
X92237560Y-75311000D01*
X92087700Y-75311000D02*
X92237560Y-75311000D01*
X91983560Y-75311000D02*
X92087700Y-75311000D01*
X82844640Y-75311000D02*
X82326480Y-75311000D01*
X92235020Y-75316080D02*
X91716860Y-75316080D01*
X92237560Y-76108560D02*
X92237560Y-75311000D01*
D12*
%TO.C,C10*%
X91447252Y-58447000D02*
X90924748Y-58447000D01*
X91447252Y-59917000D02*
X90924748Y-59917000D01*
%TO.C,TP7*%
X111821000Y-57277000D02*
G75*
G03*
X111821000Y-57277000I-950000J0D01*
G01*
%TO.C,D1*%
X98670000Y-76100000D02*
X98670000Y-77570000D01*
X98670000Y-77570000D02*
X101130000Y-77570000D01*
X101130000Y-76100000D02*
X98670000Y-76100000D01*
%TO.C,J2*%
X88260000Y-52155000D02*
X88260000Y-53480000D01*
X88325000Y-53480000D02*
X88260000Y-53480000D01*
X88325000Y-53480000D02*
X88325000Y-57010000D01*
X81920000Y-53480000D02*
X81855000Y-53480000D01*
X81855000Y-53480000D02*
X81855000Y-57010000D01*
X88325000Y-57010000D02*
X88260000Y-57010000D01*
X81920000Y-57010000D02*
X81855000Y-57010000D01*
%TO.C,Q1*%
X121575000Y-59690000D02*
X121575000Y-58015000D01*
X121575000Y-59690000D02*
X121575000Y-60340000D01*
X118455000Y-59690000D02*
X118455000Y-59040000D01*
X118455000Y-59690000D02*
X118455000Y-60340000D01*
%TO.C,R6*%
X120062258Y-71867500D02*
X119587742Y-71867500D01*
X120062258Y-72912500D02*
X119587742Y-72912500D01*
%TO.C,C3*%
X128637420Y-65276000D02*
X128918580Y-65276000D01*
X128637420Y-66296000D02*
X128918580Y-66296000D01*
%TO.C,TP2*%
X93025000Y-78740000D02*
G75*
G03*
X93025000Y-78740000I-950000J0D01*
G01*
%TO.C,R3*%
X116444500Y-67674258D02*
X116444500Y-67199742D01*
X117489500Y-67674258D02*
X117489500Y-67199742D01*
%TO.C,R7*%
X113935742Y-58278500D02*
X114410258Y-58278500D01*
X113935742Y-59323500D02*
X114410258Y-59323500D01*
%TO.C,R9*%
X116317500Y-59927258D02*
X116317500Y-59452742D01*
X117362500Y-59927258D02*
X117362500Y-59452742D01*
%TO.C,R8*%
X119607064Y-79475000D02*
X119152936Y-79475000D01*
X119607064Y-78005000D02*
X119152936Y-78005000D01*
%TO.C,U2*%
X126505000Y-72458000D02*
X130105000Y-72458000D01*
X126505000Y-72458000D02*
X124305000Y-72458000D01*
X126505000Y-66988000D02*
X128705000Y-66988000D01*
X126505000Y-66988000D02*
X124305000Y-66988000D01*
%TO.C,TP6*%
X112710000Y-69469000D02*
G75*
G03*
X112710000Y-69469000I-950000J0D01*
G01*
%TO.C,C5*%
X130681000Y-72784580D02*
X130681000Y-72503420D01*
X131701000Y-72784580D02*
X131701000Y-72503420D01*
%TO.C,C4*%
X121283000Y-68974580D02*
X121283000Y-68693420D01*
X122303000Y-68974580D02*
X122303000Y-68693420D01*
%TO.C,TP8*%
X117790000Y-83185000D02*
G75*
G03*
X117790000Y-83185000I-950000J0D01*
G01*
%TO.C,C7*%
X123965580Y-66296000D02*
X123684420Y-66296000D01*
X123965580Y-65276000D02*
X123684420Y-65276000D01*
%TO.C,R4*%
X118347258Y-69708500D02*
X117872742Y-69708500D01*
X118347258Y-70753500D02*
X117872742Y-70753500D01*
%TO.C,C1*%
X85346000Y-81279420D02*
X85346000Y-81560580D01*
X84326000Y-81279420D02*
X84326000Y-81560580D01*
%TO.C,C2*%
X88013000Y-81266420D02*
X88013000Y-81547580D01*
X86993000Y-81266420D02*
X86993000Y-81547580D01*
%TO.C,TP4*%
X101280000Y-73660000D02*
G75*
G03*
X101280000Y-73660000I-950000J0D01*
G01*
%TO.C,R1*%
X129271500Y-62056742D02*
X129271500Y-62531258D01*
X130316500Y-62056742D02*
X130316500Y-62531258D01*
%TO.C,TP3*%
X96835000Y-76200000D02*
G75*
G03*
X96835000Y-76200000I-950000J0D01*
G01*
%TO.C,C6*%
X130681000Y-69355580D02*
X130681000Y-69074420D01*
X131701000Y-69355580D02*
X131701000Y-69074420D01*
%TO.C,C9*%
X134085000Y-77843748D02*
X134085000Y-78366252D01*
X132615000Y-77843748D02*
X132615000Y-78366252D01*
%TO.C,R2*%
X128284500Y-62056742D02*
X128284500Y-62531258D01*
X127239500Y-62056742D02*
X127239500Y-62531258D01*
%TO.C,TP5*%
X110805000Y-72009000D02*
G75*
G03*
X110805000Y-72009000I-950000J0D01*
G01*
%TO.C,C8*%
X122293748Y-55399000D02*
X122816252Y-55399000D01*
X122293748Y-56869000D02*
X122816252Y-56869000D01*
%TO.C,TP1*%
X92390000Y-81915000D02*
G75*
G03*
X92390000Y-81915000I-950000J0D01*
G01*
%TO.C,R5*%
X122157258Y-74817500D02*
X121682742Y-74817500D01*
X122157258Y-73772500D02*
X121682742Y-73772500D01*
%TD*%
%LPC*%
D15*
%TO.C,FID3*%
X78740000Y-81915000D03*
%TD*%
%TO.C,FID2*%
X138430000Y-92075000D03*
%TD*%
%TO.C,FID1*%
X93345000Y-52705000D03*
%TD*%
D16*
%TO.C,Y1*%
X84876000Y-78105000D03*
X87376000Y-78105000D03*
%TD*%
D17*
%TO.C,U1*%
X90238580Y-66062860D03*
X89039700Y-66062860D03*
X87838280Y-66062860D03*
X86639400Y-66062860D03*
X85437980Y-66062860D03*
X84239100Y-66062860D03*
X90238580Y-67561460D03*
X89039700Y-67561460D03*
X87838280Y-67561460D03*
X86639400Y-67561460D03*
X85437980Y-67561460D03*
X84239100Y-67561460D03*
X90238580Y-69062600D03*
X89039700Y-69062600D03*
X87838280Y-69062600D03*
X86639400Y-69062600D03*
X85437980Y-69062600D03*
X84239100Y-69062600D03*
X90238580Y-70561200D03*
X89039700Y-70561200D03*
X87838280Y-70561200D03*
X86639400Y-70561200D03*
X85437980Y-70561200D03*
X84239100Y-70561200D03*
D18*
X83439000Y-61313060D03*
X84538820Y-61313060D03*
X85638640Y-61313060D03*
X86738460Y-61313060D03*
X87838280Y-61313060D03*
X88938100Y-61313060D03*
X90037920Y-61313060D03*
X91137740Y-61313060D03*
X91137740Y-75311000D03*
X90037920Y-75311000D03*
X88938100Y-75311000D03*
X87838280Y-75311000D03*
X86738460Y-75311000D03*
X85638640Y-75311000D03*
X84538820Y-75311000D03*
X83439000Y-75311000D03*
%TD*%
D19*
%TO.C,C10*%
X92136000Y-59182000D03*
X90236000Y-59182000D03*
%TD*%
D20*
%TO.C,TP7*%
X110871000Y-57277000D03*
%TD*%
D21*
%TO.C,D1*%
X99455000Y-76835000D03*
X101205000Y-76835000D03*
%TD*%
D22*
%TO.C,J2*%
X87630000Y-53295000D03*
X87630000Y-57195000D03*
X86360000Y-53295000D03*
X86360000Y-57195000D03*
X85090000Y-53295000D03*
X85090000Y-57195000D03*
X83820000Y-53295000D03*
X83820000Y-57195000D03*
X82550000Y-53295000D03*
X82550000Y-57195000D03*
%TD*%
D23*
%TO.C,Q1*%
X120965000Y-58752500D03*
X119065000Y-58752500D03*
X120015000Y-60627500D03*
%TD*%
D24*
%TO.C,R6*%
X119000000Y-72390000D03*
X120650000Y-72390000D03*
%TD*%
D25*
%TO.C,C3*%
X128003000Y-65786000D03*
X129553000Y-65786000D03*
%TD*%
D20*
%TO.C,TP2*%
X92075000Y-78740000D03*
%TD*%
D26*
%TO.C,R3*%
X116967000Y-68262000D03*
X116967000Y-66612000D03*
%TD*%
D27*
%TO.C,R7*%
X113348000Y-58801000D03*
X114998000Y-58801000D03*
%TD*%
D26*
%TO.C,R9*%
X116840000Y-60515000D03*
X116840000Y-58865000D03*
%TD*%
D28*
%TO.C,BT1*%
X136525000Y-75805000D03*
D29*
X136525000Y-80405000D03*
%TD*%
D30*
%TO.C,R8*%
X120292500Y-78740000D03*
X118467500Y-78740000D03*
%TD*%
D31*
%TO.C,U2*%
X129367500Y-71998000D03*
X129367500Y-71348000D03*
X129367500Y-70698000D03*
X129367500Y-70048000D03*
X129367500Y-69398000D03*
X129367500Y-68748000D03*
X129367500Y-68098000D03*
X129367500Y-67448000D03*
X123642500Y-67448000D03*
X123642500Y-68098000D03*
X123642500Y-68748000D03*
X123642500Y-69398000D03*
X123642500Y-70048000D03*
X123642500Y-70698000D03*
X123642500Y-71348000D03*
X123642500Y-71998000D03*
%TD*%
D20*
%TO.C,TP6*%
X111760000Y-69469000D03*
%TD*%
D32*
%TO.C,H6*%
X137972800Y-52673250D03*
%TD*%
D33*
%TO.C,C5*%
X131191000Y-73419000D03*
X131191000Y-71869000D03*
%TD*%
D32*
%TO.C,H4*%
X92621100Y-86614000D03*
%TD*%
%TO.C,H2*%
X120802400Y-86614000D03*
%TD*%
D33*
%TO.C,C4*%
X121793000Y-69609000D03*
X121793000Y-68059000D03*
%TD*%
D20*
%TO.C,TP8*%
X116840000Y-83185000D03*
%TD*%
D34*
%TO.C,C7*%
X124600000Y-65786000D03*
X123050000Y-65786000D03*
%TD*%
D24*
%TO.C,R4*%
X117285000Y-70231000D03*
X118935000Y-70231000D03*
%TD*%
D32*
%TO.C,H5*%
X137972800Y-86614000D03*
%TD*%
D35*
%TO.C,J3*%
X136525000Y-58420000D03*
%TD*%
D36*
%TO.C,C1*%
X84836000Y-80645000D03*
X84836000Y-82195000D03*
%TD*%
%TO.C,C2*%
X87503000Y-80632000D03*
X87503000Y-82182000D03*
%TD*%
D20*
%TO.C,TP4*%
X100330000Y-73660000D03*
%TD*%
D37*
%TO.C,R1*%
X129794000Y-63119000D03*
X129794000Y-61469000D03*
%TD*%
D20*
%TO.C,TP3*%
X95885000Y-76200000D03*
%TD*%
D33*
%TO.C,C6*%
X131191000Y-69990000D03*
X131191000Y-68440000D03*
%TD*%
D38*
%TO.C,C9*%
X133350000Y-77155000D03*
X133350000Y-79055000D03*
%TD*%
D37*
%TO.C,R2*%
X127762000Y-61469000D03*
X127762000Y-63119000D03*
%TD*%
D20*
%TO.C,TP5*%
X109855000Y-72009000D03*
%TD*%
D39*
%TO.C,C8*%
X121605000Y-56134000D03*
X123505000Y-56134000D03*
%TD*%
D32*
%TO.C,H1*%
X78422500Y-86614000D03*
%TD*%
D20*
%TO.C,TP1*%
X91440000Y-81915000D03*
%TD*%
D24*
%TO.C,R5*%
X122745000Y-74295000D03*
X121095000Y-74295000D03*
%TD*%
D32*
%TO.C,H3*%
X78740000Y-52476400D03*
%TD*%
D40*
%TO.C,J1*%
X121959000Y-53848000D03*
D41*
X125559000Y-53848000D03*
X129159000Y-53848000D03*
X132759000Y-53848000D03*
%TD*%
D42*
%TO.C,SW1*%
X88771800Y-87158000D03*
X82271800Y-87158000D03*
X88771800Y-91658000D03*
X82271800Y-91658000D03*
%TD*%
%TO.C,SW2*%
X130707200Y-87158000D03*
X124207200Y-87158000D03*
X130707200Y-91658000D03*
X124207200Y-91658000D03*
%TD*%
%LPD*%
M02*
