%TF.GenerationSoftware,KiCad,Pcbnew,7.0.5+dfsg-2*%
%TF.CreationDate,2023-08-29T10:22:57-04:00*%
%TF.ProjectId,proto1_0,70726f74-6f31-45f3-902e-6b696361645f,rev?*%
%TF.SameCoordinates,Original*%
%TF.FileFunction,Drillmap*%
%TF.FilePolarity,Positive*%
%FSLAX45Y45*%
G04 Gerber Fmt 4.5, Leading zero omitted, Abs format (unit mm)*
G04 Created by KiCad (PCBNEW 7.0.5+dfsg-2) date 2023-08-29 10:22:57*
%MOMM*%
%LPD*%
G01*
G04 APERTURE LIST*
%ADD10C,0.100000*%
%ADD11C,0.200000*%
%ADD12C,0.038100*%
%ADD13C,0.060000*%
%ADD14C,0.110000*%
G04 APERTURE END LIST*
D10*
X8191500Y-6096000D02*
X7620000Y-5524500D01*
X8191500Y-7620000D02*
X8191500Y-6096000D01*
X7620000Y-8191500D02*
X8191500Y-7620000D01*
X7620000Y-5524500D02*
X7620000Y-4998720D01*
X12319000Y-9398000D02*
X14120000Y-9398000D01*
X11684000Y-5506720D02*
X9906000Y-5506720D01*
X8925560Y-9398000D02*
X10033000Y-8255000D01*
X7620000Y-9398000D02*
X8925560Y-9398000D01*
X7620000Y-4998720D02*
X9398000Y-4998720D01*
X12192000Y-4998720D02*
X11684000Y-5506720D01*
X7620000Y-9398000D02*
X7620000Y-8191500D01*
X14120000Y-4998720D02*
X14120000Y-9398000D01*
X10033000Y-8255000D02*
X11176000Y-8255000D01*
X12319000Y-9398000D02*
X11176000Y-8255000D01*
X9398000Y-4998720D02*
X9906000Y-5506720D01*
X14120000Y-4998720D02*
X12192000Y-4998720D01*
D11*
D12*
X8416092Y-5973008D02*
X8454192Y-6011108D01*
X8454192Y-5973008D02*
X8416092Y-6011108D01*
X8439150Y-6483350D02*
X8477250Y-6521450D01*
X8477250Y-6483350D02*
X8439150Y-6521450D01*
X8477250Y-7143750D02*
X8515350Y-7181850D01*
X8515350Y-7143750D02*
X8477250Y-7181850D01*
X8489950Y-5111750D02*
X8528050Y-5149850D01*
X8528050Y-5111750D02*
X8489950Y-5149850D01*
X8553450Y-5886450D02*
X8591550Y-5924550D01*
X8591550Y-5886450D02*
X8553450Y-5924550D01*
X8566150Y-6254750D02*
X8604250Y-6292850D01*
X8604250Y-6254750D02*
X8566150Y-6292850D01*
X8591550Y-8197850D02*
X8629650Y-8235950D01*
X8629650Y-8197850D02*
X8591550Y-8235950D01*
X8655050Y-5949950D02*
X8693150Y-5988050D01*
X8693150Y-5949950D02*
X8655050Y-5988050D01*
X8794750Y-7346950D02*
X8832850Y-7385050D01*
X8832850Y-7346950D02*
X8794750Y-7385050D01*
X8896350Y-5911850D02*
X8934450Y-5949950D01*
X8934450Y-5911850D02*
X8896350Y-5949950D01*
X8909050Y-8388350D02*
X8947150Y-8426450D01*
X8947150Y-8388350D02*
X8909050Y-8426450D01*
X8916212Y-7880350D02*
X8954312Y-7918450D01*
X8954312Y-7880350D02*
X8916212Y-7918450D01*
X8959850Y-7346950D02*
X8997950Y-7385050D01*
X8997950Y-7346950D02*
X8959850Y-7385050D01*
X9023350Y-6254750D02*
X9061450Y-6292850D01*
X9061450Y-6254750D02*
X9023350Y-6292850D01*
X9048750Y-5784850D02*
X9086850Y-5822950D01*
X9086850Y-5784850D02*
X9048750Y-5822950D01*
X9053272Y-7880350D02*
X9091372Y-7918450D01*
X9091372Y-7880350D02*
X9053272Y-7918450D01*
X9053272Y-8350250D02*
X9091372Y-8388350D01*
X9091372Y-8350250D02*
X9053272Y-8388350D01*
X9071104Y-5584696D02*
X9109204Y-5622796D01*
X9109204Y-5584696D02*
X9071104Y-5622796D01*
X9185146Y-5483354D02*
X9223246Y-5521454D01*
X9223246Y-5483354D02*
X9185146Y-5521454D01*
X9823450Y-6546850D02*
X9861550Y-6584950D01*
X9861550Y-6546850D02*
X9823450Y-6584950D01*
X9836150Y-6305550D02*
X9874250Y-6343650D01*
X9874250Y-6305550D02*
X9836150Y-6343650D01*
X9937750Y-6305550D02*
X9975850Y-6343650D01*
X9975850Y-6305550D02*
X9937750Y-6343650D01*
X9937750Y-6546850D02*
X9975850Y-6584950D01*
X9975850Y-6546850D02*
X9937750Y-6584950D01*
X10052050Y-6305550D02*
X10090150Y-6343650D01*
X10090150Y-6305550D02*
X10052050Y-6343650D01*
X10052050Y-6546850D02*
X10090150Y-6584950D01*
X10090150Y-6546850D02*
X10052050Y-6584950D01*
X10153650Y-6305550D02*
X10191750Y-6343650D01*
X10191750Y-6305550D02*
X10153650Y-6343650D01*
X10153650Y-6546850D02*
X10191750Y-6584950D01*
X10191750Y-6546850D02*
X10153650Y-6584950D01*
X10445750Y-6389420D02*
X10483850Y-6427520D01*
X10483850Y-6389420D02*
X10445750Y-6427520D01*
X10788650Y-6407150D02*
X10826750Y-6445250D01*
X10826750Y-6407150D02*
X10788650Y-6445250D01*
X11404600Y-6985000D02*
X11442700Y-7023100D01*
X11442700Y-6985000D02*
X11404600Y-7023100D01*
X11639550Y-6546850D02*
X11677650Y-6584950D01*
X11677650Y-6546850D02*
X11639550Y-6584950D01*
X11650095Y-7219950D02*
X11688195Y-7258050D01*
X11688195Y-7219950D02*
X11650095Y-7258050D01*
X11703050Y-7664450D02*
X11741150Y-7702550D01*
X11741150Y-7664450D02*
X11703050Y-7702550D01*
X11713545Y-7151420D02*
X11751645Y-7189520D01*
X11751645Y-7151420D02*
X11713545Y-7189520D01*
X11855450Y-8299450D02*
X11893550Y-8337550D01*
X11893550Y-8299450D02*
X11855450Y-8337550D01*
X12185650Y-6661150D02*
X12223750Y-6699250D01*
X12223750Y-6661150D02*
X12185650Y-6699250D01*
X12338050Y-6470650D02*
X12376150Y-6508750D01*
X12376150Y-6470650D02*
X12338050Y-6508750D01*
X12490450Y-6864350D02*
X12528550Y-6902450D01*
X12528550Y-6864350D02*
X12490450Y-6902450D01*
X12782550Y-7118350D02*
X12820650Y-7156450D01*
X12820650Y-7118350D02*
X12782550Y-7156450D01*
X13176250Y-7880350D02*
X13214350Y-7918450D01*
X13214350Y-7880350D02*
X13176250Y-7918450D01*
X13201650Y-7167850D02*
X13239750Y-7205950D01*
X13239750Y-7167850D02*
X13201650Y-7205950D01*
D13*
X12225900Y-5384800D02*
G75*
G03*
X12225900Y-5384800I-30000J0D01*
G01*
X12585900Y-5384800D02*
G75*
G03*
X12585900Y-5384800I-30000J0D01*
G01*
X12945900Y-5384800D02*
G75*
G03*
X12945900Y-5384800I-30000J0D01*
G01*
X13305900Y-5384800D02*
G75*
G03*
X13305900Y-5384800I-30000J0D01*
G01*
D14*
X8227180Y-8660800D02*
X8227180Y-8770800D01*
X8172180Y-8715800D02*
X8282180Y-8715800D01*
X8227180Y-9110800D02*
X8227180Y-9220800D01*
X8172180Y-9165800D02*
X8282180Y-9165800D01*
X8877180Y-8660800D02*
X8877180Y-8770800D01*
X8822180Y-8715800D02*
X8932180Y-8715800D01*
X8877180Y-9110800D02*
X8877180Y-9220800D01*
X8822180Y-9165800D02*
X8932180Y-9165800D01*
X12420720Y-8660800D02*
X12420720Y-8770800D01*
X12365720Y-8715800D02*
X12475720Y-8715800D01*
X12420720Y-9110800D02*
X12420720Y-9220800D01*
X12365720Y-9165800D02*
X12475720Y-9165800D01*
X13070720Y-8660800D02*
X13070720Y-8770800D01*
X13015720Y-8715800D02*
X13125720Y-8715800D01*
X13070720Y-9110800D02*
X13070720Y-9220800D01*
X13015720Y-9165800D02*
X13125720Y-9165800D01*
X13652500Y-5787000D02*
X13652500Y-5897000D01*
X13597500Y-5842000D02*
X13707500Y-5842000D01*
X13652500Y-7525500D02*
X13652500Y-7635500D01*
X13597500Y-7580500D02*
X13707500Y-7580500D01*
X13652500Y-7985500D02*
X13652500Y-8095500D01*
X13597500Y-8040500D02*
X13707500Y-8040500D01*
D11*
X7875777Y-9714484D02*
X7875777Y-9514484D01*
X7875777Y-9514484D02*
X7923396Y-9514484D01*
X7923396Y-9514484D02*
X7951967Y-9524008D01*
X7951967Y-9524008D02*
X7971015Y-9543055D01*
X7971015Y-9543055D02*
X7980539Y-9562103D01*
X7980539Y-9562103D02*
X7990062Y-9600198D01*
X7990062Y-9600198D02*
X7990062Y-9628770D01*
X7990062Y-9628770D02*
X7980539Y-9666865D01*
X7980539Y-9666865D02*
X7971015Y-9685912D01*
X7971015Y-9685912D02*
X7951967Y-9704960D01*
X7951967Y-9704960D02*
X7923396Y-9714484D01*
X7923396Y-9714484D02*
X7875777Y-9714484D01*
X8075777Y-9714484D02*
X8075777Y-9581150D01*
X8075777Y-9619246D02*
X8085301Y-9600198D01*
X8085301Y-9600198D02*
X8094824Y-9590674D01*
X8094824Y-9590674D02*
X8113872Y-9581150D01*
X8113872Y-9581150D02*
X8132920Y-9581150D01*
X8199586Y-9714484D02*
X8199586Y-9581150D01*
X8199586Y-9514484D02*
X8190062Y-9524008D01*
X8190062Y-9524008D02*
X8199586Y-9533531D01*
X8199586Y-9533531D02*
X8209110Y-9524008D01*
X8209110Y-9524008D02*
X8199586Y-9514484D01*
X8199586Y-9514484D02*
X8199586Y-9533531D01*
X8323396Y-9714484D02*
X8304348Y-9704960D01*
X8304348Y-9704960D02*
X8294824Y-9685912D01*
X8294824Y-9685912D02*
X8294824Y-9514484D01*
X8428158Y-9714484D02*
X8409110Y-9704960D01*
X8409110Y-9704960D02*
X8399586Y-9685912D01*
X8399586Y-9685912D02*
X8399586Y-9514484D01*
X8656729Y-9714484D02*
X8656729Y-9514484D01*
X8656729Y-9514484D02*
X8723396Y-9657341D01*
X8723396Y-9657341D02*
X8790063Y-9514484D01*
X8790063Y-9514484D02*
X8790063Y-9714484D01*
X8971015Y-9714484D02*
X8971015Y-9609722D01*
X8971015Y-9609722D02*
X8961491Y-9590674D01*
X8961491Y-9590674D02*
X8942444Y-9581150D01*
X8942444Y-9581150D02*
X8904348Y-9581150D01*
X8904348Y-9581150D02*
X8885301Y-9590674D01*
X8971015Y-9704960D02*
X8951967Y-9714484D01*
X8951967Y-9714484D02*
X8904348Y-9714484D01*
X8904348Y-9714484D02*
X8885301Y-9704960D01*
X8885301Y-9704960D02*
X8875777Y-9685912D01*
X8875777Y-9685912D02*
X8875777Y-9666865D01*
X8875777Y-9666865D02*
X8885301Y-9647817D01*
X8885301Y-9647817D02*
X8904348Y-9638293D01*
X8904348Y-9638293D02*
X8951967Y-9638293D01*
X8951967Y-9638293D02*
X8971015Y-9628770D01*
X9066253Y-9581150D02*
X9066253Y-9781150D01*
X9066253Y-9590674D02*
X9085301Y-9581150D01*
X9085301Y-9581150D02*
X9123396Y-9581150D01*
X9123396Y-9581150D02*
X9142444Y-9590674D01*
X9142444Y-9590674D02*
X9151967Y-9600198D01*
X9151967Y-9600198D02*
X9161491Y-9619246D01*
X9161491Y-9619246D02*
X9161491Y-9676389D01*
X9161491Y-9676389D02*
X9151967Y-9695436D01*
X9151967Y-9695436D02*
X9142444Y-9704960D01*
X9142444Y-9704960D02*
X9123396Y-9714484D01*
X9123396Y-9714484D02*
X9085301Y-9714484D01*
X9085301Y-9714484D02*
X9066253Y-9704960D01*
X9247205Y-9695436D02*
X9256729Y-9704960D01*
X9256729Y-9704960D02*
X9247205Y-9714484D01*
X9247205Y-9714484D02*
X9237682Y-9704960D01*
X9237682Y-9704960D02*
X9247205Y-9695436D01*
X9247205Y-9695436D02*
X9247205Y-9714484D01*
X9247205Y-9590674D02*
X9256729Y-9600198D01*
X9256729Y-9600198D02*
X9247205Y-9609722D01*
X9247205Y-9609722D02*
X9237682Y-9600198D01*
X9237682Y-9600198D02*
X9247205Y-9590674D01*
X9247205Y-9590674D02*
X9247205Y-9609722D01*
D12*
X7576900Y-10023950D02*
X7615000Y-10062050D01*
X7615000Y-10023950D02*
X7576900Y-10062050D01*
D11*
X7913872Y-9934484D02*
X7932920Y-9934484D01*
X7932920Y-9934484D02*
X7951967Y-9944008D01*
X7951967Y-9944008D02*
X7961491Y-9953531D01*
X7961491Y-9953531D02*
X7971015Y-9972579D01*
X7971015Y-9972579D02*
X7980539Y-10010674D01*
X7980539Y-10010674D02*
X7980539Y-10058293D01*
X7980539Y-10058293D02*
X7971015Y-10096389D01*
X7971015Y-10096389D02*
X7961491Y-10115436D01*
X7961491Y-10115436D02*
X7951967Y-10124960D01*
X7951967Y-10124960D02*
X7932920Y-10134484D01*
X7932920Y-10134484D02*
X7913872Y-10134484D01*
X7913872Y-10134484D02*
X7894824Y-10124960D01*
X7894824Y-10124960D02*
X7885301Y-10115436D01*
X7885301Y-10115436D02*
X7875777Y-10096389D01*
X7875777Y-10096389D02*
X7866253Y-10058293D01*
X7866253Y-10058293D02*
X7866253Y-10010674D01*
X7866253Y-10010674D02*
X7875777Y-9972579D01*
X7875777Y-9972579D02*
X7885301Y-9953531D01*
X7885301Y-9953531D02*
X7894824Y-9944008D01*
X7894824Y-9944008D02*
X7913872Y-9934484D01*
X8066253Y-10115436D02*
X8075777Y-10124960D01*
X8075777Y-10124960D02*
X8066253Y-10134484D01*
X8066253Y-10134484D02*
X8056729Y-10124960D01*
X8056729Y-10124960D02*
X8066253Y-10115436D01*
X8066253Y-10115436D02*
X8066253Y-10134484D01*
X8142443Y-9934484D02*
X8266253Y-9934484D01*
X8266253Y-9934484D02*
X8199586Y-10010674D01*
X8199586Y-10010674D02*
X8228158Y-10010674D01*
X8228158Y-10010674D02*
X8247205Y-10020198D01*
X8247205Y-10020198D02*
X8256729Y-10029722D01*
X8256729Y-10029722D02*
X8266253Y-10048770D01*
X8266253Y-10048770D02*
X8266253Y-10096389D01*
X8266253Y-10096389D02*
X8256729Y-10115436D01*
X8256729Y-10115436D02*
X8247205Y-10124960D01*
X8247205Y-10124960D02*
X8228158Y-10134484D01*
X8228158Y-10134484D02*
X8171015Y-10134484D01*
X8171015Y-10134484D02*
X8151967Y-10124960D01*
X8151967Y-10124960D02*
X8142443Y-10115436D01*
X8380539Y-10020198D02*
X8361491Y-10010674D01*
X8361491Y-10010674D02*
X8351967Y-10001150D01*
X8351967Y-10001150D02*
X8342443Y-9982103D01*
X8342443Y-9982103D02*
X8342443Y-9972579D01*
X8342443Y-9972579D02*
X8351967Y-9953531D01*
X8351967Y-9953531D02*
X8361491Y-9944008D01*
X8361491Y-9944008D02*
X8380539Y-9934484D01*
X8380539Y-9934484D02*
X8418634Y-9934484D01*
X8418634Y-9934484D02*
X8437682Y-9944008D01*
X8437682Y-9944008D02*
X8447205Y-9953531D01*
X8447205Y-9953531D02*
X8456729Y-9972579D01*
X8456729Y-9972579D02*
X8456729Y-9982103D01*
X8456729Y-9982103D02*
X8447205Y-10001150D01*
X8447205Y-10001150D02*
X8437682Y-10010674D01*
X8437682Y-10010674D02*
X8418634Y-10020198D01*
X8418634Y-10020198D02*
X8380539Y-10020198D01*
X8380539Y-10020198D02*
X8361491Y-10029722D01*
X8361491Y-10029722D02*
X8351967Y-10039246D01*
X8351967Y-10039246D02*
X8342443Y-10058293D01*
X8342443Y-10058293D02*
X8342443Y-10096389D01*
X8342443Y-10096389D02*
X8351967Y-10115436D01*
X8351967Y-10115436D02*
X8361491Y-10124960D01*
X8361491Y-10124960D02*
X8380539Y-10134484D01*
X8380539Y-10134484D02*
X8418634Y-10134484D01*
X8418634Y-10134484D02*
X8437682Y-10124960D01*
X8437682Y-10124960D02*
X8447205Y-10115436D01*
X8447205Y-10115436D02*
X8456729Y-10096389D01*
X8456729Y-10096389D02*
X8456729Y-10058293D01*
X8456729Y-10058293D02*
X8447205Y-10039246D01*
X8447205Y-10039246D02*
X8437682Y-10029722D01*
X8437682Y-10029722D02*
X8418634Y-10020198D01*
X8647205Y-10134484D02*
X8532920Y-10134484D01*
X8590063Y-10134484D02*
X8590063Y-9934484D01*
X8590063Y-9934484D02*
X8571015Y-9963055D01*
X8571015Y-9963055D02*
X8551967Y-9982103D01*
X8551967Y-9982103D02*
X8532920Y-9991627D01*
X8732920Y-10134484D02*
X8732920Y-10001150D01*
X8732920Y-10020198D02*
X8742444Y-10010674D01*
X8742444Y-10010674D02*
X8761491Y-10001150D01*
X8761491Y-10001150D02*
X8790063Y-10001150D01*
X8790063Y-10001150D02*
X8809110Y-10010674D01*
X8809110Y-10010674D02*
X8818634Y-10029722D01*
X8818634Y-10029722D02*
X8818634Y-10134484D01*
X8818634Y-10029722D02*
X8828158Y-10010674D01*
X8828158Y-10010674D02*
X8847205Y-10001150D01*
X8847205Y-10001150D02*
X8875777Y-10001150D01*
X8875777Y-10001150D02*
X8894825Y-10010674D01*
X8894825Y-10010674D02*
X8904348Y-10029722D01*
X8904348Y-10029722D02*
X8904348Y-10134484D01*
X8999586Y-10134484D02*
X8999586Y-10001150D01*
X8999586Y-10020198D02*
X9009110Y-10010674D01*
X9009110Y-10010674D02*
X9028158Y-10001150D01*
X9028158Y-10001150D02*
X9056729Y-10001150D01*
X9056729Y-10001150D02*
X9075777Y-10010674D01*
X9075777Y-10010674D02*
X9085301Y-10029722D01*
X9085301Y-10029722D02*
X9085301Y-10134484D01*
X9085301Y-10029722D02*
X9094825Y-10010674D01*
X9094825Y-10010674D02*
X9113872Y-10001150D01*
X9113872Y-10001150D02*
X9142444Y-10001150D01*
X9142444Y-10001150D02*
X9161491Y-10010674D01*
X9161491Y-10010674D02*
X9171015Y-10029722D01*
X9171015Y-10029722D02*
X9171015Y-10134484D01*
X9561491Y-9924960D02*
X9390063Y-10182103D01*
X9818634Y-9934484D02*
X9837682Y-9934484D01*
X9837682Y-9934484D02*
X9856729Y-9944008D01*
X9856729Y-9944008D02*
X9866253Y-9953531D01*
X9866253Y-9953531D02*
X9875777Y-9972579D01*
X9875777Y-9972579D02*
X9885301Y-10010674D01*
X9885301Y-10010674D02*
X9885301Y-10058293D01*
X9885301Y-10058293D02*
X9875777Y-10096389D01*
X9875777Y-10096389D02*
X9866253Y-10115436D01*
X9866253Y-10115436D02*
X9856729Y-10124960D01*
X9856729Y-10124960D02*
X9837682Y-10134484D01*
X9837682Y-10134484D02*
X9818634Y-10134484D01*
X9818634Y-10134484D02*
X9799587Y-10124960D01*
X9799587Y-10124960D02*
X9790063Y-10115436D01*
X9790063Y-10115436D02*
X9780539Y-10096389D01*
X9780539Y-10096389D02*
X9771015Y-10058293D01*
X9771015Y-10058293D02*
X9771015Y-10010674D01*
X9771015Y-10010674D02*
X9780539Y-9972579D01*
X9780539Y-9972579D02*
X9790063Y-9953531D01*
X9790063Y-9953531D02*
X9799587Y-9944008D01*
X9799587Y-9944008D02*
X9818634Y-9934484D01*
X9971015Y-10115436D02*
X9980539Y-10124960D01*
X9980539Y-10124960D02*
X9971015Y-10134484D01*
X9971015Y-10134484D02*
X9961491Y-10124960D01*
X9961491Y-10124960D02*
X9971015Y-10115436D01*
X9971015Y-10115436D02*
X9971015Y-10134484D01*
X10104348Y-9934484D02*
X10123396Y-9934484D01*
X10123396Y-9934484D02*
X10142444Y-9944008D01*
X10142444Y-9944008D02*
X10151968Y-9953531D01*
X10151968Y-9953531D02*
X10161491Y-9972579D01*
X10161491Y-9972579D02*
X10171015Y-10010674D01*
X10171015Y-10010674D02*
X10171015Y-10058293D01*
X10171015Y-10058293D02*
X10161491Y-10096389D01*
X10161491Y-10096389D02*
X10151968Y-10115436D01*
X10151968Y-10115436D02*
X10142444Y-10124960D01*
X10142444Y-10124960D02*
X10123396Y-10134484D01*
X10123396Y-10134484D02*
X10104348Y-10134484D01*
X10104348Y-10134484D02*
X10085301Y-10124960D01*
X10085301Y-10124960D02*
X10075777Y-10115436D01*
X10075777Y-10115436D02*
X10066253Y-10096389D01*
X10066253Y-10096389D02*
X10056729Y-10058293D01*
X10056729Y-10058293D02*
X10056729Y-10010674D01*
X10056729Y-10010674D02*
X10066253Y-9972579D01*
X10066253Y-9972579D02*
X10075777Y-9953531D01*
X10075777Y-9953531D02*
X10085301Y-9944008D01*
X10085301Y-9944008D02*
X10104348Y-9934484D01*
X10361491Y-10134484D02*
X10247206Y-10134484D01*
X10304348Y-10134484D02*
X10304348Y-9934484D01*
X10304348Y-9934484D02*
X10285301Y-9963055D01*
X10285301Y-9963055D02*
X10266253Y-9982103D01*
X10266253Y-9982103D02*
X10247206Y-9991627D01*
X10542444Y-9934484D02*
X10447206Y-9934484D01*
X10447206Y-9934484D02*
X10437682Y-10029722D01*
X10437682Y-10029722D02*
X10447206Y-10020198D01*
X10447206Y-10020198D02*
X10466253Y-10010674D01*
X10466253Y-10010674D02*
X10513872Y-10010674D01*
X10513872Y-10010674D02*
X10532920Y-10020198D01*
X10532920Y-10020198D02*
X10542444Y-10029722D01*
X10542444Y-10029722D02*
X10551968Y-10048770D01*
X10551968Y-10048770D02*
X10551968Y-10096389D01*
X10551968Y-10096389D02*
X10542444Y-10115436D01*
X10542444Y-10115436D02*
X10532920Y-10124960D01*
X10532920Y-10124960D02*
X10513872Y-10134484D01*
X10513872Y-10134484D02*
X10466253Y-10134484D01*
X10466253Y-10134484D02*
X10447206Y-10124960D01*
X10447206Y-10124960D02*
X10437682Y-10115436D01*
X10675777Y-9934484D02*
X10694825Y-9934484D01*
X10694825Y-9934484D02*
X10713872Y-9944008D01*
X10713872Y-9944008D02*
X10723396Y-9953531D01*
X10723396Y-9953531D02*
X10732920Y-9972579D01*
X10732920Y-9972579D02*
X10742444Y-10010674D01*
X10742444Y-10010674D02*
X10742444Y-10058293D01*
X10742444Y-10058293D02*
X10732920Y-10096389D01*
X10732920Y-10096389D02*
X10723396Y-10115436D01*
X10723396Y-10115436D02*
X10713872Y-10124960D01*
X10713872Y-10124960D02*
X10694825Y-10134484D01*
X10694825Y-10134484D02*
X10675777Y-10134484D01*
X10675777Y-10134484D02*
X10656729Y-10124960D01*
X10656729Y-10124960D02*
X10647206Y-10115436D01*
X10647206Y-10115436D02*
X10637682Y-10096389D01*
X10637682Y-10096389D02*
X10628158Y-10058293D01*
X10628158Y-10058293D02*
X10628158Y-10010674D01*
X10628158Y-10010674D02*
X10637682Y-9972579D01*
X10637682Y-9972579D02*
X10647206Y-9953531D01*
X10647206Y-9953531D02*
X10656729Y-9944008D01*
X10656729Y-9944008D02*
X10675777Y-9934484D01*
X10818634Y-9934484D02*
X10818634Y-9972579D01*
X10894825Y-9934484D02*
X10894825Y-9972579D01*
X11190063Y-10210674D02*
X11180539Y-10201150D01*
X11180539Y-10201150D02*
X11161491Y-10172579D01*
X11161491Y-10172579D02*
X11151968Y-10153531D01*
X11151968Y-10153531D02*
X11142444Y-10124960D01*
X11142444Y-10124960D02*
X11132920Y-10077341D01*
X11132920Y-10077341D02*
X11132920Y-10039246D01*
X11132920Y-10039246D02*
X11142444Y-9991627D01*
X11142444Y-9991627D02*
X11151968Y-9963055D01*
X11151968Y-9963055D02*
X11161491Y-9944008D01*
X11161491Y-9944008D02*
X11180539Y-9915436D01*
X11180539Y-9915436D02*
X11190063Y-9905912D01*
X11351968Y-10001150D02*
X11351968Y-10134484D01*
X11304348Y-9924960D02*
X11256729Y-10067817D01*
X11256729Y-10067817D02*
X11380539Y-10067817D01*
X11561491Y-10134484D02*
X11447206Y-10134484D01*
X11504348Y-10134484D02*
X11504348Y-9934484D01*
X11504348Y-9934484D02*
X11485301Y-9963055D01*
X11485301Y-9963055D02*
X11466253Y-9982103D01*
X11466253Y-9982103D02*
X11447206Y-9991627D01*
X11799587Y-10134484D02*
X11799587Y-9934484D01*
X11885301Y-10134484D02*
X11885301Y-10029722D01*
X11885301Y-10029722D02*
X11875777Y-10010674D01*
X11875777Y-10010674D02*
X11856730Y-10001150D01*
X11856730Y-10001150D02*
X11828158Y-10001150D01*
X11828158Y-10001150D02*
X11809110Y-10010674D01*
X11809110Y-10010674D02*
X11799587Y-10020198D01*
X12009110Y-10134484D02*
X11990063Y-10124960D01*
X11990063Y-10124960D02*
X11980539Y-10115436D01*
X11980539Y-10115436D02*
X11971015Y-10096389D01*
X11971015Y-10096389D02*
X11971015Y-10039246D01*
X11971015Y-10039246D02*
X11980539Y-10020198D01*
X11980539Y-10020198D02*
X11990063Y-10010674D01*
X11990063Y-10010674D02*
X12009110Y-10001150D01*
X12009110Y-10001150D02*
X12037682Y-10001150D01*
X12037682Y-10001150D02*
X12056730Y-10010674D01*
X12056730Y-10010674D02*
X12066253Y-10020198D01*
X12066253Y-10020198D02*
X12075777Y-10039246D01*
X12075777Y-10039246D02*
X12075777Y-10096389D01*
X12075777Y-10096389D02*
X12066253Y-10115436D01*
X12066253Y-10115436D02*
X12056730Y-10124960D01*
X12056730Y-10124960D02*
X12037682Y-10134484D01*
X12037682Y-10134484D02*
X12009110Y-10134484D01*
X12190063Y-10134484D02*
X12171015Y-10124960D01*
X12171015Y-10124960D02*
X12161491Y-10105912D01*
X12161491Y-10105912D02*
X12161491Y-9934484D01*
X12342444Y-10124960D02*
X12323396Y-10134484D01*
X12323396Y-10134484D02*
X12285301Y-10134484D01*
X12285301Y-10134484D02*
X12266253Y-10124960D01*
X12266253Y-10124960D02*
X12256730Y-10105912D01*
X12256730Y-10105912D02*
X12256730Y-10029722D01*
X12256730Y-10029722D02*
X12266253Y-10010674D01*
X12266253Y-10010674D02*
X12285301Y-10001150D01*
X12285301Y-10001150D02*
X12323396Y-10001150D01*
X12323396Y-10001150D02*
X12342444Y-10010674D01*
X12342444Y-10010674D02*
X12351968Y-10029722D01*
X12351968Y-10029722D02*
X12351968Y-10048770D01*
X12351968Y-10048770D02*
X12256730Y-10067817D01*
X12428158Y-10124960D02*
X12447206Y-10134484D01*
X12447206Y-10134484D02*
X12485301Y-10134484D01*
X12485301Y-10134484D02*
X12504349Y-10124960D01*
X12504349Y-10124960D02*
X12513872Y-10105912D01*
X12513872Y-10105912D02*
X12513872Y-10096389D01*
X12513872Y-10096389D02*
X12504349Y-10077341D01*
X12504349Y-10077341D02*
X12485301Y-10067817D01*
X12485301Y-10067817D02*
X12456730Y-10067817D01*
X12456730Y-10067817D02*
X12437682Y-10058293D01*
X12437682Y-10058293D02*
X12428158Y-10039246D01*
X12428158Y-10039246D02*
X12428158Y-10029722D01*
X12428158Y-10029722D02*
X12437682Y-10010674D01*
X12437682Y-10010674D02*
X12456730Y-10001150D01*
X12456730Y-10001150D02*
X12485301Y-10001150D01*
X12485301Y-10001150D02*
X12504349Y-10010674D01*
X12580539Y-10210674D02*
X12590063Y-10201150D01*
X12590063Y-10201150D02*
X12609111Y-10172579D01*
X12609111Y-10172579D02*
X12618634Y-10153531D01*
X12618634Y-10153531D02*
X12628158Y-10124960D01*
X12628158Y-10124960D02*
X12637682Y-10077341D01*
X12637682Y-10077341D02*
X12637682Y-10039246D01*
X12637682Y-10039246D02*
X12628158Y-9991627D01*
X12628158Y-9991627D02*
X12618634Y-9963055D01*
X12618634Y-9963055D02*
X12609111Y-9944008D01*
X12609111Y-9944008D02*
X12590063Y-9915436D01*
X12590063Y-9915436D02*
X12580539Y-9905912D01*
D13*
X7615000Y-10307000D02*
G75*
G03*
X7615000Y-10307000I-30000J0D01*
G01*
D11*
X7913872Y-10198484D02*
X7932920Y-10198484D01*
X7932920Y-10198484D02*
X7951967Y-10208008D01*
X7951967Y-10208008D02*
X7961491Y-10217531D01*
X7961491Y-10217531D02*
X7971015Y-10236579D01*
X7971015Y-10236579D02*
X7980539Y-10274674D01*
X7980539Y-10274674D02*
X7980539Y-10322293D01*
X7980539Y-10322293D02*
X7971015Y-10360389D01*
X7971015Y-10360389D02*
X7961491Y-10379436D01*
X7961491Y-10379436D02*
X7951967Y-10388960D01*
X7951967Y-10388960D02*
X7932920Y-10398484D01*
X7932920Y-10398484D02*
X7913872Y-10398484D01*
X7913872Y-10398484D02*
X7894824Y-10388960D01*
X7894824Y-10388960D02*
X7885301Y-10379436D01*
X7885301Y-10379436D02*
X7875777Y-10360389D01*
X7875777Y-10360389D02*
X7866253Y-10322293D01*
X7866253Y-10322293D02*
X7866253Y-10274674D01*
X7866253Y-10274674D02*
X7875777Y-10236579D01*
X7875777Y-10236579D02*
X7885301Y-10217531D01*
X7885301Y-10217531D02*
X7894824Y-10208008D01*
X7894824Y-10208008D02*
X7913872Y-10198484D01*
X8066253Y-10379436D02*
X8075777Y-10388960D01*
X8075777Y-10388960D02*
X8066253Y-10398484D01*
X8066253Y-10398484D02*
X8056729Y-10388960D01*
X8056729Y-10388960D02*
X8066253Y-10379436D01*
X8066253Y-10379436D02*
X8066253Y-10398484D01*
X8247205Y-10198484D02*
X8209110Y-10198484D01*
X8209110Y-10198484D02*
X8190062Y-10208008D01*
X8190062Y-10208008D02*
X8180539Y-10217531D01*
X8180539Y-10217531D02*
X8161491Y-10246103D01*
X8161491Y-10246103D02*
X8151967Y-10284198D01*
X8151967Y-10284198D02*
X8151967Y-10360389D01*
X8151967Y-10360389D02*
X8161491Y-10379436D01*
X8161491Y-10379436D02*
X8171015Y-10388960D01*
X8171015Y-10388960D02*
X8190062Y-10398484D01*
X8190062Y-10398484D02*
X8228158Y-10398484D01*
X8228158Y-10398484D02*
X8247205Y-10388960D01*
X8247205Y-10388960D02*
X8256729Y-10379436D01*
X8256729Y-10379436D02*
X8266253Y-10360389D01*
X8266253Y-10360389D02*
X8266253Y-10312770D01*
X8266253Y-10312770D02*
X8256729Y-10293722D01*
X8256729Y-10293722D02*
X8247205Y-10284198D01*
X8247205Y-10284198D02*
X8228158Y-10274674D01*
X8228158Y-10274674D02*
X8190062Y-10274674D01*
X8190062Y-10274674D02*
X8171015Y-10284198D01*
X8171015Y-10284198D02*
X8161491Y-10293722D01*
X8161491Y-10293722D02*
X8151967Y-10312770D01*
X8390063Y-10198484D02*
X8409110Y-10198484D01*
X8409110Y-10198484D02*
X8428158Y-10208008D01*
X8428158Y-10208008D02*
X8437682Y-10217531D01*
X8437682Y-10217531D02*
X8447205Y-10236579D01*
X8447205Y-10236579D02*
X8456729Y-10274674D01*
X8456729Y-10274674D02*
X8456729Y-10322293D01*
X8456729Y-10322293D02*
X8447205Y-10360389D01*
X8447205Y-10360389D02*
X8437682Y-10379436D01*
X8437682Y-10379436D02*
X8428158Y-10388960D01*
X8428158Y-10388960D02*
X8409110Y-10398484D01*
X8409110Y-10398484D02*
X8390063Y-10398484D01*
X8390063Y-10398484D02*
X8371015Y-10388960D01*
X8371015Y-10388960D02*
X8361491Y-10379436D01*
X8361491Y-10379436D02*
X8351967Y-10360389D01*
X8351967Y-10360389D02*
X8342443Y-10322293D01*
X8342443Y-10322293D02*
X8342443Y-10274674D01*
X8342443Y-10274674D02*
X8351967Y-10236579D01*
X8351967Y-10236579D02*
X8361491Y-10217531D01*
X8361491Y-10217531D02*
X8371015Y-10208008D01*
X8371015Y-10208008D02*
X8390063Y-10198484D01*
X8580539Y-10198484D02*
X8599586Y-10198484D01*
X8599586Y-10198484D02*
X8618634Y-10208008D01*
X8618634Y-10208008D02*
X8628158Y-10217531D01*
X8628158Y-10217531D02*
X8637682Y-10236579D01*
X8637682Y-10236579D02*
X8647205Y-10274674D01*
X8647205Y-10274674D02*
X8647205Y-10322293D01*
X8647205Y-10322293D02*
X8637682Y-10360389D01*
X8637682Y-10360389D02*
X8628158Y-10379436D01*
X8628158Y-10379436D02*
X8618634Y-10388960D01*
X8618634Y-10388960D02*
X8599586Y-10398484D01*
X8599586Y-10398484D02*
X8580539Y-10398484D01*
X8580539Y-10398484D02*
X8561491Y-10388960D01*
X8561491Y-10388960D02*
X8551967Y-10379436D01*
X8551967Y-10379436D02*
X8542444Y-10360389D01*
X8542444Y-10360389D02*
X8532920Y-10322293D01*
X8532920Y-10322293D02*
X8532920Y-10274674D01*
X8532920Y-10274674D02*
X8542444Y-10236579D01*
X8542444Y-10236579D02*
X8551967Y-10217531D01*
X8551967Y-10217531D02*
X8561491Y-10208008D01*
X8561491Y-10208008D02*
X8580539Y-10198484D01*
X8732920Y-10398484D02*
X8732920Y-10265150D01*
X8732920Y-10284198D02*
X8742444Y-10274674D01*
X8742444Y-10274674D02*
X8761491Y-10265150D01*
X8761491Y-10265150D02*
X8790063Y-10265150D01*
X8790063Y-10265150D02*
X8809110Y-10274674D01*
X8809110Y-10274674D02*
X8818634Y-10293722D01*
X8818634Y-10293722D02*
X8818634Y-10398484D01*
X8818634Y-10293722D02*
X8828158Y-10274674D01*
X8828158Y-10274674D02*
X8847205Y-10265150D01*
X8847205Y-10265150D02*
X8875777Y-10265150D01*
X8875777Y-10265150D02*
X8894825Y-10274674D01*
X8894825Y-10274674D02*
X8904348Y-10293722D01*
X8904348Y-10293722D02*
X8904348Y-10398484D01*
X8999586Y-10398484D02*
X8999586Y-10265150D01*
X8999586Y-10284198D02*
X9009110Y-10274674D01*
X9009110Y-10274674D02*
X9028158Y-10265150D01*
X9028158Y-10265150D02*
X9056729Y-10265150D01*
X9056729Y-10265150D02*
X9075777Y-10274674D01*
X9075777Y-10274674D02*
X9085301Y-10293722D01*
X9085301Y-10293722D02*
X9085301Y-10398484D01*
X9085301Y-10293722D02*
X9094825Y-10274674D01*
X9094825Y-10274674D02*
X9113872Y-10265150D01*
X9113872Y-10265150D02*
X9142444Y-10265150D01*
X9142444Y-10265150D02*
X9161491Y-10274674D01*
X9161491Y-10274674D02*
X9171015Y-10293722D01*
X9171015Y-10293722D02*
X9171015Y-10398484D01*
X9561491Y-10188960D02*
X9390063Y-10446103D01*
X9818634Y-10198484D02*
X9837682Y-10198484D01*
X9837682Y-10198484D02*
X9856729Y-10208008D01*
X9856729Y-10208008D02*
X9866253Y-10217531D01*
X9866253Y-10217531D02*
X9875777Y-10236579D01*
X9875777Y-10236579D02*
X9885301Y-10274674D01*
X9885301Y-10274674D02*
X9885301Y-10322293D01*
X9885301Y-10322293D02*
X9875777Y-10360389D01*
X9875777Y-10360389D02*
X9866253Y-10379436D01*
X9866253Y-10379436D02*
X9856729Y-10388960D01*
X9856729Y-10388960D02*
X9837682Y-10398484D01*
X9837682Y-10398484D02*
X9818634Y-10398484D01*
X9818634Y-10398484D02*
X9799587Y-10388960D01*
X9799587Y-10388960D02*
X9790063Y-10379436D01*
X9790063Y-10379436D02*
X9780539Y-10360389D01*
X9780539Y-10360389D02*
X9771015Y-10322293D01*
X9771015Y-10322293D02*
X9771015Y-10274674D01*
X9771015Y-10274674D02*
X9780539Y-10236579D01*
X9780539Y-10236579D02*
X9790063Y-10217531D01*
X9790063Y-10217531D02*
X9799587Y-10208008D01*
X9799587Y-10208008D02*
X9818634Y-10198484D01*
X9971015Y-10379436D02*
X9980539Y-10388960D01*
X9980539Y-10388960D02*
X9971015Y-10398484D01*
X9971015Y-10398484D02*
X9961491Y-10388960D01*
X9961491Y-10388960D02*
X9971015Y-10379436D01*
X9971015Y-10379436D02*
X9971015Y-10398484D01*
X10104348Y-10198484D02*
X10123396Y-10198484D01*
X10123396Y-10198484D02*
X10142444Y-10208008D01*
X10142444Y-10208008D02*
X10151968Y-10217531D01*
X10151968Y-10217531D02*
X10161491Y-10236579D01*
X10161491Y-10236579D02*
X10171015Y-10274674D01*
X10171015Y-10274674D02*
X10171015Y-10322293D01*
X10171015Y-10322293D02*
X10161491Y-10360389D01*
X10161491Y-10360389D02*
X10151968Y-10379436D01*
X10151968Y-10379436D02*
X10142444Y-10388960D01*
X10142444Y-10388960D02*
X10123396Y-10398484D01*
X10123396Y-10398484D02*
X10104348Y-10398484D01*
X10104348Y-10398484D02*
X10085301Y-10388960D01*
X10085301Y-10388960D02*
X10075777Y-10379436D01*
X10075777Y-10379436D02*
X10066253Y-10360389D01*
X10066253Y-10360389D02*
X10056729Y-10322293D01*
X10056729Y-10322293D02*
X10056729Y-10274674D01*
X10056729Y-10274674D02*
X10066253Y-10236579D01*
X10066253Y-10236579D02*
X10075777Y-10217531D01*
X10075777Y-10217531D02*
X10085301Y-10208008D01*
X10085301Y-10208008D02*
X10104348Y-10198484D01*
X10247206Y-10217531D02*
X10256729Y-10208008D01*
X10256729Y-10208008D02*
X10275777Y-10198484D01*
X10275777Y-10198484D02*
X10323396Y-10198484D01*
X10323396Y-10198484D02*
X10342444Y-10208008D01*
X10342444Y-10208008D02*
X10351968Y-10217531D01*
X10351968Y-10217531D02*
X10361491Y-10236579D01*
X10361491Y-10236579D02*
X10361491Y-10255627D01*
X10361491Y-10255627D02*
X10351968Y-10284198D01*
X10351968Y-10284198D02*
X10237682Y-10398484D01*
X10237682Y-10398484D02*
X10361491Y-10398484D01*
X10428158Y-10198484D02*
X10551968Y-10198484D01*
X10551968Y-10198484D02*
X10485301Y-10274674D01*
X10485301Y-10274674D02*
X10513872Y-10274674D01*
X10513872Y-10274674D02*
X10532920Y-10284198D01*
X10532920Y-10284198D02*
X10542444Y-10293722D01*
X10542444Y-10293722D02*
X10551968Y-10312770D01*
X10551968Y-10312770D02*
X10551968Y-10360389D01*
X10551968Y-10360389D02*
X10542444Y-10379436D01*
X10542444Y-10379436D02*
X10532920Y-10388960D01*
X10532920Y-10388960D02*
X10513872Y-10398484D01*
X10513872Y-10398484D02*
X10456729Y-10398484D01*
X10456729Y-10398484D02*
X10437682Y-10388960D01*
X10437682Y-10388960D02*
X10428158Y-10379436D01*
X10723396Y-10198484D02*
X10685301Y-10198484D01*
X10685301Y-10198484D02*
X10666253Y-10208008D01*
X10666253Y-10208008D02*
X10656729Y-10217531D01*
X10656729Y-10217531D02*
X10637682Y-10246103D01*
X10637682Y-10246103D02*
X10628158Y-10284198D01*
X10628158Y-10284198D02*
X10628158Y-10360389D01*
X10628158Y-10360389D02*
X10637682Y-10379436D01*
X10637682Y-10379436D02*
X10647206Y-10388960D01*
X10647206Y-10388960D02*
X10666253Y-10398484D01*
X10666253Y-10398484D02*
X10704349Y-10398484D01*
X10704349Y-10398484D02*
X10723396Y-10388960D01*
X10723396Y-10388960D02*
X10732920Y-10379436D01*
X10732920Y-10379436D02*
X10742444Y-10360389D01*
X10742444Y-10360389D02*
X10742444Y-10312770D01*
X10742444Y-10312770D02*
X10732920Y-10293722D01*
X10732920Y-10293722D02*
X10723396Y-10284198D01*
X10723396Y-10284198D02*
X10704349Y-10274674D01*
X10704349Y-10274674D02*
X10666253Y-10274674D01*
X10666253Y-10274674D02*
X10647206Y-10284198D01*
X10647206Y-10284198D02*
X10637682Y-10293722D01*
X10637682Y-10293722D02*
X10628158Y-10312770D01*
X10818634Y-10198484D02*
X10818634Y-10236579D01*
X10894825Y-10198484D02*
X10894825Y-10236579D01*
X11190063Y-10474674D02*
X11180539Y-10465150D01*
X11180539Y-10465150D02*
X11161491Y-10436579D01*
X11161491Y-10436579D02*
X11151968Y-10417531D01*
X11151968Y-10417531D02*
X11142444Y-10388960D01*
X11142444Y-10388960D02*
X11132920Y-10341341D01*
X11132920Y-10341341D02*
X11132920Y-10303246D01*
X11132920Y-10303246D02*
X11142444Y-10255627D01*
X11142444Y-10255627D02*
X11151968Y-10227055D01*
X11151968Y-10227055D02*
X11161491Y-10208008D01*
X11161491Y-10208008D02*
X11180539Y-10179436D01*
X11180539Y-10179436D02*
X11190063Y-10169912D01*
X11351968Y-10265150D02*
X11351968Y-10398484D01*
X11304348Y-10188960D02*
X11256729Y-10331817D01*
X11256729Y-10331817D02*
X11380539Y-10331817D01*
X11609110Y-10398484D02*
X11609110Y-10198484D01*
X11694825Y-10398484D02*
X11694825Y-10293722D01*
X11694825Y-10293722D02*
X11685301Y-10274674D01*
X11685301Y-10274674D02*
X11666253Y-10265150D01*
X11666253Y-10265150D02*
X11637682Y-10265150D01*
X11637682Y-10265150D02*
X11618634Y-10274674D01*
X11618634Y-10274674D02*
X11609110Y-10284198D01*
X11818634Y-10398484D02*
X11799587Y-10388960D01*
X11799587Y-10388960D02*
X11790063Y-10379436D01*
X11790063Y-10379436D02*
X11780539Y-10360389D01*
X11780539Y-10360389D02*
X11780539Y-10303246D01*
X11780539Y-10303246D02*
X11790063Y-10284198D01*
X11790063Y-10284198D02*
X11799587Y-10274674D01*
X11799587Y-10274674D02*
X11818634Y-10265150D01*
X11818634Y-10265150D02*
X11847206Y-10265150D01*
X11847206Y-10265150D02*
X11866253Y-10274674D01*
X11866253Y-10274674D02*
X11875777Y-10284198D01*
X11875777Y-10284198D02*
X11885301Y-10303246D01*
X11885301Y-10303246D02*
X11885301Y-10360389D01*
X11885301Y-10360389D02*
X11875777Y-10379436D01*
X11875777Y-10379436D02*
X11866253Y-10388960D01*
X11866253Y-10388960D02*
X11847206Y-10398484D01*
X11847206Y-10398484D02*
X11818634Y-10398484D01*
X11999587Y-10398484D02*
X11980539Y-10388960D01*
X11980539Y-10388960D02*
X11971015Y-10369912D01*
X11971015Y-10369912D02*
X11971015Y-10198484D01*
X12151968Y-10388960D02*
X12132920Y-10398484D01*
X12132920Y-10398484D02*
X12094825Y-10398484D01*
X12094825Y-10398484D02*
X12075777Y-10388960D01*
X12075777Y-10388960D02*
X12066253Y-10369912D01*
X12066253Y-10369912D02*
X12066253Y-10293722D01*
X12066253Y-10293722D02*
X12075777Y-10274674D01*
X12075777Y-10274674D02*
X12094825Y-10265150D01*
X12094825Y-10265150D02*
X12132920Y-10265150D01*
X12132920Y-10265150D02*
X12151968Y-10274674D01*
X12151968Y-10274674D02*
X12161491Y-10293722D01*
X12161491Y-10293722D02*
X12161491Y-10312770D01*
X12161491Y-10312770D02*
X12066253Y-10331817D01*
X12237682Y-10388960D02*
X12256730Y-10398484D01*
X12256730Y-10398484D02*
X12294825Y-10398484D01*
X12294825Y-10398484D02*
X12313872Y-10388960D01*
X12313872Y-10388960D02*
X12323396Y-10369912D01*
X12323396Y-10369912D02*
X12323396Y-10360389D01*
X12323396Y-10360389D02*
X12313872Y-10341341D01*
X12313872Y-10341341D02*
X12294825Y-10331817D01*
X12294825Y-10331817D02*
X12266253Y-10331817D01*
X12266253Y-10331817D02*
X12247206Y-10322293D01*
X12247206Y-10322293D02*
X12237682Y-10303246D01*
X12237682Y-10303246D02*
X12237682Y-10293722D01*
X12237682Y-10293722D02*
X12247206Y-10274674D01*
X12247206Y-10274674D02*
X12266253Y-10265150D01*
X12266253Y-10265150D02*
X12294825Y-10265150D01*
X12294825Y-10265150D02*
X12313872Y-10274674D01*
X12390063Y-10474674D02*
X12399587Y-10465150D01*
X12399587Y-10465150D02*
X12418634Y-10436579D01*
X12418634Y-10436579D02*
X12428158Y-10417531D01*
X12428158Y-10417531D02*
X12437682Y-10388960D01*
X12437682Y-10388960D02*
X12447206Y-10341341D01*
X12447206Y-10341341D02*
X12447206Y-10303246D01*
X12447206Y-10303246D02*
X12437682Y-10255627D01*
X12437682Y-10255627D02*
X12428158Y-10227055D01*
X12428158Y-10227055D02*
X12418634Y-10208008D01*
X12418634Y-10208008D02*
X12399587Y-10179436D01*
X12399587Y-10179436D02*
X12390063Y-10169912D01*
D14*
X7560000Y-10516000D02*
X7560000Y-10626000D01*
X7505000Y-10571000D02*
X7615000Y-10571000D01*
D11*
X7980539Y-10662484D02*
X7866253Y-10662484D01*
X7923396Y-10662484D02*
X7923396Y-10462484D01*
X7923396Y-10462484D02*
X7904348Y-10491055D01*
X7904348Y-10491055D02*
X7885301Y-10510103D01*
X7885301Y-10510103D02*
X7866253Y-10519627D01*
X8066253Y-10643436D02*
X8075777Y-10652960D01*
X8075777Y-10652960D02*
X8066253Y-10662484D01*
X8066253Y-10662484D02*
X8056729Y-10652960D01*
X8056729Y-10652960D02*
X8066253Y-10643436D01*
X8066253Y-10643436D02*
X8066253Y-10662484D01*
X8266253Y-10662484D02*
X8151967Y-10662484D01*
X8209110Y-10662484D02*
X8209110Y-10462484D01*
X8209110Y-10462484D02*
X8190062Y-10491055D01*
X8190062Y-10491055D02*
X8171015Y-10510103D01*
X8171015Y-10510103D02*
X8151967Y-10519627D01*
X8390063Y-10462484D02*
X8409110Y-10462484D01*
X8409110Y-10462484D02*
X8428158Y-10472008D01*
X8428158Y-10472008D02*
X8437682Y-10481531D01*
X8437682Y-10481531D02*
X8447205Y-10500579D01*
X8447205Y-10500579D02*
X8456729Y-10538674D01*
X8456729Y-10538674D02*
X8456729Y-10586293D01*
X8456729Y-10586293D02*
X8447205Y-10624389D01*
X8447205Y-10624389D02*
X8437682Y-10643436D01*
X8437682Y-10643436D02*
X8428158Y-10652960D01*
X8428158Y-10652960D02*
X8409110Y-10662484D01*
X8409110Y-10662484D02*
X8390063Y-10662484D01*
X8390063Y-10662484D02*
X8371015Y-10652960D01*
X8371015Y-10652960D02*
X8361491Y-10643436D01*
X8361491Y-10643436D02*
X8351967Y-10624389D01*
X8351967Y-10624389D02*
X8342443Y-10586293D01*
X8342443Y-10586293D02*
X8342443Y-10538674D01*
X8342443Y-10538674D02*
X8351967Y-10500579D01*
X8351967Y-10500579D02*
X8361491Y-10481531D01*
X8361491Y-10481531D02*
X8371015Y-10472008D01*
X8371015Y-10472008D02*
X8390063Y-10462484D01*
X8580539Y-10462484D02*
X8599586Y-10462484D01*
X8599586Y-10462484D02*
X8618634Y-10472008D01*
X8618634Y-10472008D02*
X8628158Y-10481531D01*
X8628158Y-10481531D02*
X8637682Y-10500579D01*
X8637682Y-10500579D02*
X8647205Y-10538674D01*
X8647205Y-10538674D02*
X8647205Y-10586293D01*
X8647205Y-10586293D02*
X8637682Y-10624389D01*
X8637682Y-10624389D02*
X8628158Y-10643436D01*
X8628158Y-10643436D02*
X8618634Y-10652960D01*
X8618634Y-10652960D02*
X8599586Y-10662484D01*
X8599586Y-10662484D02*
X8580539Y-10662484D01*
X8580539Y-10662484D02*
X8561491Y-10652960D01*
X8561491Y-10652960D02*
X8551967Y-10643436D01*
X8551967Y-10643436D02*
X8542444Y-10624389D01*
X8542444Y-10624389D02*
X8532920Y-10586293D01*
X8532920Y-10586293D02*
X8532920Y-10538674D01*
X8532920Y-10538674D02*
X8542444Y-10500579D01*
X8542444Y-10500579D02*
X8551967Y-10481531D01*
X8551967Y-10481531D02*
X8561491Y-10472008D01*
X8561491Y-10472008D02*
X8580539Y-10462484D01*
X8732920Y-10662484D02*
X8732920Y-10529150D01*
X8732920Y-10548198D02*
X8742444Y-10538674D01*
X8742444Y-10538674D02*
X8761491Y-10529150D01*
X8761491Y-10529150D02*
X8790063Y-10529150D01*
X8790063Y-10529150D02*
X8809110Y-10538674D01*
X8809110Y-10538674D02*
X8818634Y-10557722D01*
X8818634Y-10557722D02*
X8818634Y-10662484D01*
X8818634Y-10557722D02*
X8828158Y-10538674D01*
X8828158Y-10538674D02*
X8847205Y-10529150D01*
X8847205Y-10529150D02*
X8875777Y-10529150D01*
X8875777Y-10529150D02*
X8894825Y-10538674D01*
X8894825Y-10538674D02*
X8904348Y-10557722D01*
X8904348Y-10557722D02*
X8904348Y-10662484D01*
X8999586Y-10662484D02*
X8999586Y-10529150D01*
X8999586Y-10548198D02*
X9009110Y-10538674D01*
X9009110Y-10538674D02*
X9028158Y-10529150D01*
X9028158Y-10529150D02*
X9056729Y-10529150D01*
X9056729Y-10529150D02*
X9075777Y-10538674D01*
X9075777Y-10538674D02*
X9085301Y-10557722D01*
X9085301Y-10557722D02*
X9085301Y-10662484D01*
X9085301Y-10557722D02*
X9094825Y-10538674D01*
X9094825Y-10538674D02*
X9113872Y-10529150D01*
X9113872Y-10529150D02*
X9142444Y-10529150D01*
X9142444Y-10529150D02*
X9161491Y-10538674D01*
X9161491Y-10538674D02*
X9171015Y-10557722D01*
X9171015Y-10557722D02*
X9171015Y-10662484D01*
X9561491Y-10452960D02*
X9390063Y-10710103D01*
X9818634Y-10462484D02*
X9837682Y-10462484D01*
X9837682Y-10462484D02*
X9856729Y-10472008D01*
X9856729Y-10472008D02*
X9866253Y-10481531D01*
X9866253Y-10481531D02*
X9875777Y-10500579D01*
X9875777Y-10500579D02*
X9885301Y-10538674D01*
X9885301Y-10538674D02*
X9885301Y-10586293D01*
X9885301Y-10586293D02*
X9875777Y-10624389D01*
X9875777Y-10624389D02*
X9866253Y-10643436D01*
X9866253Y-10643436D02*
X9856729Y-10652960D01*
X9856729Y-10652960D02*
X9837682Y-10662484D01*
X9837682Y-10662484D02*
X9818634Y-10662484D01*
X9818634Y-10662484D02*
X9799587Y-10652960D01*
X9799587Y-10652960D02*
X9790063Y-10643436D01*
X9790063Y-10643436D02*
X9780539Y-10624389D01*
X9780539Y-10624389D02*
X9771015Y-10586293D01*
X9771015Y-10586293D02*
X9771015Y-10538674D01*
X9771015Y-10538674D02*
X9780539Y-10500579D01*
X9780539Y-10500579D02*
X9790063Y-10481531D01*
X9790063Y-10481531D02*
X9799587Y-10472008D01*
X9799587Y-10472008D02*
X9818634Y-10462484D01*
X9971015Y-10643436D02*
X9980539Y-10652960D01*
X9980539Y-10652960D02*
X9971015Y-10662484D01*
X9971015Y-10662484D02*
X9961491Y-10652960D01*
X9961491Y-10652960D02*
X9971015Y-10643436D01*
X9971015Y-10643436D02*
X9971015Y-10662484D01*
X10104348Y-10462484D02*
X10123396Y-10462484D01*
X10123396Y-10462484D02*
X10142444Y-10472008D01*
X10142444Y-10472008D02*
X10151968Y-10481531D01*
X10151968Y-10481531D02*
X10161491Y-10500579D01*
X10161491Y-10500579D02*
X10171015Y-10538674D01*
X10171015Y-10538674D02*
X10171015Y-10586293D01*
X10171015Y-10586293D02*
X10161491Y-10624389D01*
X10161491Y-10624389D02*
X10151968Y-10643436D01*
X10151968Y-10643436D02*
X10142444Y-10652960D01*
X10142444Y-10652960D02*
X10123396Y-10662484D01*
X10123396Y-10662484D02*
X10104348Y-10662484D01*
X10104348Y-10662484D02*
X10085301Y-10652960D01*
X10085301Y-10652960D02*
X10075777Y-10643436D01*
X10075777Y-10643436D02*
X10066253Y-10624389D01*
X10066253Y-10624389D02*
X10056729Y-10586293D01*
X10056729Y-10586293D02*
X10056729Y-10538674D01*
X10056729Y-10538674D02*
X10066253Y-10500579D01*
X10066253Y-10500579D02*
X10075777Y-10481531D01*
X10075777Y-10481531D02*
X10085301Y-10472008D01*
X10085301Y-10472008D02*
X10104348Y-10462484D01*
X10342444Y-10529150D02*
X10342444Y-10662484D01*
X10294825Y-10452960D02*
X10247206Y-10595817D01*
X10247206Y-10595817D02*
X10371015Y-10595817D01*
X10428158Y-10462484D02*
X10551968Y-10462484D01*
X10551968Y-10462484D02*
X10485301Y-10538674D01*
X10485301Y-10538674D02*
X10513872Y-10538674D01*
X10513872Y-10538674D02*
X10532920Y-10548198D01*
X10532920Y-10548198D02*
X10542444Y-10557722D01*
X10542444Y-10557722D02*
X10551968Y-10576770D01*
X10551968Y-10576770D02*
X10551968Y-10624389D01*
X10551968Y-10624389D02*
X10542444Y-10643436D01*
X10542444Y-10643436D02*
X10532920Y-10652960D01*
X10532920Y-10652960D02*
X10513872Y-10662484D01*
X10513872Y-10662484D02*
X10456729Y-10662484D01*
X10456729Y-10662484D02*
X10437682Y-10652960D01*
X10437682Y-10652960D02*
X10428158Y-10643436D01*
X10618634Y-10462484D02*
X10742444Y-10462484D01*
X10742444Y-10462484D02*
X10675777Y-10538674D01*
X10675777Y-10538674D02*
X10704349Y-10538674D01*
X10704349Y-10538674D02*
X10723396Y-10548198D01*
X10723396Y-10548198D02*
X10732920Y-10557722D01*
X10732920Y-10557722D02*
X10742444Y-10576770D01*
X10742444Y-10576770D02*
X10742444Y-10624389D01*
X10742444Y-10624389D02*
X10732920Y-10643436D01*
X10732920Y-10643436D02*
X10723396Y-10652960D01*
X10723396Y-10652960D02*
X10704349Y-10662484D01*
X10704349Y-10662484D02*
X10647206Y-10662484D01*
X10647206Y-10662484D02*
X10628158Y-10652960D01*
X10628158Y-10652960D02*
X10618634Y-10643436D01*
X10818634Y-10462484D02*
X10818634Y-10500579D01*
X10894825Y-10462484D02*
X10894825Y-10500579D01*
X11190063Y-10738674D02*
X11180539Y-10729150D01*
X11180539Y-10729150D02*
X11161491Y-10700579D01*
X11161491Y-10700579D02*
X11151968Y-10681531D01*
X11151968Y-10681531D02*
X11142444Y-10652960D01*
X11142444Y-10652960D02*
X11132920Y-10605341D01*
X11132920Y-10605341D02*
X11132920Y-10567246D01*
X11132920Y-10567246D02*
X11142444Y-10519627D01*
X11142444Y-10519627D02*
X11151968Y-10491055D01*
X11151968Y-10491055D02*
X11161491Y-10472008D01*
X11161491Y-10472008D02*
X11180539Y-10443436D01*
X11180539Y-10443436D02*
X11190063Y-10433912D01*
X11371015Y-10662484D02*
X11256729Y-10662484D01*
X11313872Y-10662484D02*
X11313872Y-10462484D01*
X11313872Y-10462484D02*
X11294825Y-10491055D01*
X11294825Y-10491055D02*
X11275777Y-10510103D01*
X11275777Y-10510103D02*
X11256729Y-10519627D01*
X11561491Y-10662484D02*
X11447206Y-10662484D01*
X11504348Y-10662484D02*
X11504348Y-10462484D01*
X11504348Y-10462484D02*
X11485301Y-10491055D01*
X11485301Y-10491055D02*
X11466253Y-10510103D01*
X11466253Y-10510103D02*
X11447206Y-10519627D01*
X11799587Y-10662484D02*
X11799587Y-10462484D01*
X11885301Y-10662484D02*
X11885301Y-10557722D01*
X11885301Y-10557722D02*
X11875777Y-10538674D01*
X11875777Y-10538674D02*
X11856730Y-10529150D01*
X11856730Y-10529150D02*
X11828158Y-10529150D01*
X11828158Y-10529150D02*
X11809110Y-10538674D01*
X11809110Y-10538674D02*
X11799587Y-10548198D01*
X12009110Y-10662484D02*
X11990063Y-10652960D01*
X11990063Y-10652960D02*
X11980539Y-10643436D01*
X11980539Y-10643436D02*
X11971015Y-10624389D01*
X11971015Y-10624389D02*
X11971015Y-10567246D01*
X11971015Y-10567246D02*
X11980539Y-10548198D01*
X11980539Y-10548198D02*
X11990063Y-10538674D01*
X11990063Y-10538674D02*
X12009110Y-10529150D01*
X12009110Y-10529150D02*
X12037682Y-10529150D01*
X12037682Y-10529150D02*
X12056730Y-10538674D01*
X12056730Y-10538674D02*
X12066253Y-10548198D01*
X12066253Y-10548198D02*
X12075777Y-10567246D01*
X12075777Y-10567246D02*
X12075777Y-10624389D01*
X12075777Y-10624389D02*
X12066253Y-10643436D01*
X12066253Y-10643436D02*
X12056730Y-10652960D01*
X12056730Y-10652960D02*
X12037682Y-10662484D01*
X12037682Y-10662484D02*
X12009110Y-10662484D01*
X12190063Y-10662484D02*
X12171015Y-10652960D01*
X12171015Y-10652960D02*
X12161491Y-10633912D01*
X12161491Y-10633912D02*
X12161491Y-10462484D01*
X12342444Y-10652960D02*
X12323396Y-10662484D01*
X12323396Y-10662484D02*
X12285301Y-10662484D01*
X12285301Y-10662484D02*
X12266253Y-10652960D01*
X12266253Y-10652960D02*
X12256730Y-10633912D01*
X12256730Y-10633912D02*
X12256730Y-10557722D01*
X12256730Y-10557722D02*
X12266253Y-10538674D01*
X12266253Y-10538674D02*
X12285301Y-10529150D01*
X12285301Y-10529150D02*
X12323396Y-10529150D01*
X12323396Y-10529150D02*
X12342444Y-10538674D01*
X12342444Y-10538674D02*
X12351968Y-10557722D01*
X12351968Y-10557722D02*
X12351968Y-10576770D01*
X12351968Y-10576770D02*
X12256730Y-10595817D01*
X12428158Y-10652960D02*
X12447206Y-10662484D01*
X12447206Y-10662484D02*
X12485301Y-10662484D01*
X12485301Y-10662484D02*
X12504349Y-10652960D01*
X12504349Y-10652960D02*
X12513872Y-10633912D01*
X12513872Y-10633912D02*
X12513872Y-10624389D01*
X12513872Y-10624389D02*
X12504349Y-10605341D01*
X12504349Y-10605341D02*
X12485301Y-10595817D01*
X12485301Y-10595817D02*
X12456730Y-10595817D01*
X12456730Y-10595817D02*
X12437682Y-10586293D01*
X12437682Y-10586293D02*
X12428158Y-10567246D01*
X12428158Y-10567246D02*
X12428158Y-10557722D01*
X12428158Y-10557722D02*
X12437682Y-10538674D01*
X12437682Y-10538674D02*
X12456730Y-10529150D01*
X12456730Y-10529150D02*
X12485301Y-10529150D01*
X12485301Y-10529150D02*
X12504349Y-10538674D01*
X12580539Y-10738674D02*
X12590063Y-10729150D01*
X12590063Y-10729150D02*
X12609111Y-10700579D01*
X12609111Y-10700579D02*
X12618634Y-10681531D01*
X12618634Y-10681531D02*
X12628158Y-10652960D01*
X12628158Y-10652960D02*
X12637682Y-10605341D01*
X12637682Y-10605341D02*
X12637682Y-10567246D01*
X12637682Y-10567246D02*
X12628158Y-10519627D01*
X12628158Y-10519627D02*
X12618634Y-10491055D01*
X12618634Y-10491055D02*
X12609111Y-10472008D01*
X12609111Y-10472008D02*
X12590063Y-10443436D01*
X12590063Y-10443436D02*
X12580539Y-10433912D01*
M02*
